<?xml version="1.0" encoding="utf-8" standalone="no"?>
<!DOCTYPE svg PUBLIC "-//W3C//DTD SVG 1.1//EN"
  "http://www.w3.org/Graphics/SVG/1.1/DTD/svg11.dtd">
<svg height="345.6pt" version="1.1" viewBox="0 0 460.8 345.6" width="460.8pt" xmlns="http://www.w3.org/2000/svg" xmlns:xlink="http://www.w3.org/1999/xlink">
 <metadata>
  <rdf:RDF xmlns:cc="http://creativecommons.org/ns#" xmlns:dc="http://purl.org/dc/elements/1.1/" xmlns:rdf="http://www.w3.org/1999/02/22-rdf-syntax-ns#">
   <cc:Work>
    <dc:type rdf:resource="http://purl.org/dc/dcmitype/StillImage"/>
    <dc:date>2022-09-17T22:48:57.960126</dc:date>
    <dc:format>image/svg+xml</dc:format>
    <dc:creator>
     <cc:Agent>
      <dc:title>Matplotlib v3.4.2, https://matplotlib.org/</dc:title>
     </cc:Agent>
    </dc:creator>
   </cc:Work>
  </rdf:RDF>
 </metadata>
 <defs>
  <style type="text/css">*{stroke-linecap:butt;stroke-linejoin:round;}</style>
 </defs>
 <g id="figure_1">
  <g id="patch_1">
   <path d="M 0 345.6 
L 460.8 345.6 
L 460.8 0 
L 0 0 
z
" style="fill:#ffffff;"/>
  </g>
  <g id="axes_1">
   <g id="patch_2">
    <path d="M 57.6 307.584 
L 414.72 307.584 
L 414.72 41.472 
L 57.6 41.472 
z
" style="fill:#ffffff;"/>
   </g>
   <g id="PathCollection_1">
    <defs>
     <path d="M 0 0.5 
C 0.132602 0.5 0.25979 0.447317 0.353553 0.353553 
C 0.447317 0.25979 0.5 0.132602 0.5 0 
C 0.5 -0.132602 0.447317 -0.25979 0.353553 -0.353553 
C 0.25979 -0.447317 0.132602 -0.5 0 -0.5 
C -0.132602 -0.5 -0.25979 -0.447317 -0.353553 -0.353553 
C -0.447317 -0.25979 -0.5 -0.132602 -0.5 0 
C -0.5 0.132602 -0.447317 0.25979 -0.353553 0.353553 
C -0.25979 0.447317 -0.132602 0.5 0 0.5 
z
" id="m9082c2f923" style="stroke:#008000;"/>
    </defs>
    <g clip-path="url(#p21de14b48b)">
     <use style="fill:#008000;stroke:#008000;" x="73.832727" xlink:href="#m9082c2f923" y="295.488"/>
    </g>
   </g>
   <g id="PathCollection_2">
    <g clip-path="url(#p21de14b48b)">
     <use style="fill:#008000;stroke:#008000;" x="73.832727" xlink:href="#m9082c2f923" y="293.288727"/>
    </g>
   </g>
   <g id="PathCollection_3">
    <g clip-path="url(#p21de14b48b)">
     <use style="fill:#008000;stroke:#008000;" x="73.832727" xlink:href="#m9082c2f923" y="291.089455"/>
    </g>
   </g>
   <g id="PathCollection_4">
    <g clip-path="url(#p21de14b48b)">
     <use style="fill:#008000;stroke:#008000;" x="73.832727" xlink:href="#m9082c2f923" y="288.890182"/>
    </g>
   </g>
   <g id="PathCollection_5">
    <g clip-path="url(#p21de14b48b)">
     <use style="fill:#008000;stroke:#008000;" x="73.832727" xlink:href="#m9082c2f923" y="286.690909"/>
    </g>
   </g>
   <g id="PathCollection_6">
    <g clip-path="url(#p21de14b48b)">
     <use style="fill:#008000;stroke:#008000;" x="73.832727" xlink:href="#m9082c2f923" y="284.491636"/>
    </g>
   </g>
   <g id="PathCollection_7">
    <g clip-path="url(#p21de14b48b)">
     <use style="fill:#008000;stroke:#008000;" x="73.832727" xlink:href="#m9082c2f923" y="282.292364"/>
    </g>
   </g>
   <g id="PathCollection_8">
    <g clip-path="url(#p21de14b48b)">
     <use style="fill:#008000;stroke:#008000;" x="73.832727" xlink:href="#m9082c2f923" y="280.093091"/>
    </g>
   </g>
   <g id="PathCollection_9">
    <g clip-path="url(#p21de14b48b)">
     <use style="fill:#008000;stroke:#008000;" x="73.832727" xlink:href="#m9082c2f923" y="277.893818"/>
    </g>
   </g>
   <g id="PathCollection_10">
    <g clip-path="url(#p21de14b48b)">
     <use style="fill:#008000;stroke:#008000;" x="73.832727" xlink:href="#m9082c2f923" y="275.694545"/>
    </g>
   </g>
   <g id="PathCollection_11">
    <g clip-path="url(#p21de14b48b)">
     <use style="fill:#008000;stroke:#008000;" x="94.123636" xlink:href="#m9082c2f923" y="95.354182"/>
    </g>
   </g>
   <g id="PathCollection_12">
    <g clip-path="url(#p21de14b48b)">
     <use style="fill:#008000;stroke:#008000;" x="98.181818" xlink:href="#m9082c2f923" y="93.154909"/>
    </g>
   </g>
   <g id="PathCollection_13">
    <g clip-path="url(#p21de14b48b)">
     <use style="fill:#008000;stroke:#008000;" x="102.24" xlink:href="#m9082c2f923" y="90.955636"/>
    </g>
   </g>
   <g id="PathCollection_14">
    <g clip-path="url(#p21de14b48b)">
     <use style="fill:#008000;stroke:#008000;" x="102.24" xlink:href="#m9082c2f923" y="88.756364"/>
    </g>
   </g>
   <g id="PathCollection_15">
    <g clip-path="url(#p21de14b48b)">
     <use style="fill:#008000;stroke:#008000;" x="106.298182" xlink:href="#m9082c2f923" y="86.557091"/>
    </g>
   </g>
   <g id="PathCollection_16">
    <g clip-path="url(#p21de14b48b)">
     <use style="fill:#008000;stroke:#008000;" x="110.356364" xlink:href="#m9082c2f923" y="84.357818"/>
    </g>
   </g>
   <g id="PathCollection_17">
    <g clip-path="url(#p21de14b48b)">
     <use style="fill:#008000;stroke:#008000;" x="114.414545" xlink:href="#m9082c2f923" y="82.158545"/>
    </g>
   </g>
   <g id="PathCollection_18">
    <g clip-path="url(#p21de14b48b)">
     <use style="fill:#008000;stroke:#008000;" x="118.472727" xlink:href="#m9082c2f923" y="79.959273"/>
    </g>
   </g>
   <g id="PathCollection_19">
    <g clip-path="url(#p21de14b48b)">
     <use style="fill:#008000;stroke:#008000;" x="122.530909" xlink:href="#m9082c2f923" y="77.76"/>
    </g>
   </g>
   <g id="PathCollection_20">
    <g clip-path="url(#p21de14b48b)">
     <use style="fill:#008000;stroke:#008000;" x="126.589091" xlink:href="#m9082c2f923" y="75.560727"/>
    </g>
   </g>
   <g id="PathCollection_21">
    <g clip-path="url(#p21de14b48b)">
     <use style="fill:#008000;stroke:#008000;" x="130.647273" xlink:href="#m9082c2f923" y="73.361455"/>
    </g>
   </g>
   <g id="PathCollection_22">
    <g clip-path="url(#p21de14b48b)">
     <use style="fill:#008000;stroke:#008000;" x="134.705455" xlink:href="#m9082c2f923" y="71.162182"/>
    </g>
   </g>
   <g id="PathCollection_23">
    <g clip-path="url(#p21de14b48b)">
     <use style="fill:#008000;stroke:#008000;" x="138.763636" xlink:href="#m9082c2f923" y="71.162182"/>
    </g>
   </g>
   <g id="PathCollection_24">
    <g clip-path="url(#p21de14b48b)">
     <use style="fill:#008000;stroke:#008000;" x="142.821818" xlink:href="#m9082c2f923" y="68.962909"/>
    </g>
   </g>
   <g id="PathCollection_25">
    <g clip-path="url(#p21de14b48b)">
     <use style="fill:#008000;stroke:#008000;" x="146.88" xlink:href="#m9082c2f923" y="66.763636"/>
    </g>
   </g>
   <g id="PathCollection_26">
    <g clip-path="url(#p21de14b48b)">
     <use style="fill:#008000;stroke:#008000;" x="154.996364" xlink:href="#m9082c2f923" y="64.564364"/>
    </g>
   </g>
   <g id="PathCollection_27">
    <g clip-path="url(#p21de14b48b)">
     <use style="fill:#008000;stroke:#008000;" x="163.112727" xlink:href="#m9082c2f923" y="62.365091"/>
    </g>
   </g>
   <g id="PathCollection_28">
    <g clip-path="url(#p21de14b48b)">
     <use style="fill:#008000;stroke:#008000;" x="171.229091" xlink:href="#m9082c2f923" y="60.165818"/>
    </g>
   </g>
   <g id="PathCollection_29">
    <g clip-path="url(#p21de14b48b)">
     <use style="fill:#008000;stroke:#008000;" x="179.345455" xlink:href="#m9082c2f923" y="60.165818"/>
    </g>
   </g>
   <g id="PathCollection_30">
    <g clip-path="url(#p21de14b48b)">
     <use style="fill:#008000;stroke:#008000;" x="179.345455" xlink:href="#m9082c2f923" y="57.966545"/>
    </g>
   </g>
   <g id="PathCollection_31">
    <g clip-path="url(#p21de14b48b)">
     <use style="fill:#008000;stroke:#008000;" x="183.403636" xlink:href="#m9082c2f923" y="57.966545"/>
    </g>
   </g>
   <g id="PathCollection_32">
    <g clip-path="url(#p21de14b48b)">
     <use style="fill:#008000;stroke:#008000;" x="187.461818" xlink:href="#m9082c2f923" y="57.966545"/>
    </g>
   </g>
   <g id="PathCollection_33">
    <g clip-path="url(#p21de14b48b)">
     <use style="fill:#008000;stroke:#008000;" x="191.52" xlink:href="#m9082c2f923" y="57.966545"/>
    </g>
   </g>
   <g id="PathCollection_34">
    <g clip-path="url(#p21de14b48b)">
     <use style="fill:#008000;stroke:#008000;" x="191.52" xlink:href="#m9082c2f923" y="55.767273"/>
    </g>
   </g>
   <g id="PathCollection_35">
    <g clip-path="url(#p21de14b48b)">
     <use style="fill:#008000;stroke:#008000;" x="195.578182" xlink:href="#m9082c2f923" y="55.767273"/>
    </g>
   </g>
   <g id="PathCollection_36">
    <g clip-path="url(#p21de14b48b)">
     <use style="fill:#008000;stroke:#008000;" x="199.636364" xlink:href="#m9082c2f923" y="55.767273"/>
    </g>
   </g>
   <g id="PathCollection_37">
    <g clip-path="url(#p21de14b48b)">
     <use style="fill:#008000;stroke:#008000;" x="203.694545" xlink:href="#m9082c2f923" y="55.767273"/>
    </g>
   </g>
   <g id="PathCollection_38">
    <g clip-path="url(#p21de14b48b)">
     <use style="fill:#008000;stroke:#008000;" x="207.752727" xlink:href="#m9082c2f923" y="55.767273"/>
    </g>
   </g>
   <g id="PathCollection_39">
    <g clip-path="url(#p21de14b48b)">
     <use style="fill:#008000;stroke:#008000;" x="211.810909" xlink:href="#m9082c2f923" y="55.767273"/>
    </g>
   </g>
   <g id="PathCollection_40">
    <g clip-path="url(#p21de14b48b)">
     <use style="fill:#008000;stroke:#008000;" x="211.810909" xlink:href="#m9082c2f923" y="53.568"/>
    </g>
   </g>
   <g id="PathCollection_41">
    <g clip-path="url(#p21de14b48b)">
     <use style="fill:#008000;stroke:#008000;" x="215.869091" xlink:href="#m9082c2f923" y="53.568"/>
    </g>
   </g>
   <g id="PathCollection_42">
    <g clip-path="url(#p21de14b48b)">
     <use style="fill:#008000;stroke:#008000;" x="219.927273" xlink:href="#m9082c2f923" y="53.568"/>
    </g>
   </g>
   <g id="PathCollection_43">
    <g clip-path="url(#p21de14b48b)">
     <use style="fill:#008000;stroke:#008000;" x="223.985455" xlink:href="#m9082c2f923" y="53.568"/>
    </g>
   </g>
   <g id="PathCollection_44">
    <g clip-path="url(#p21de14b48b)">
     <use style="fill:#008000;stroke:#008000;" x="228.043636" xlink:href="#m9082c2f923" y="53.568"/>
    </g>
   </g>
   <g id="PathCollection_45">
    <g clip-path="url(#p21de14b48b)">
     <use style="fill:#008000;stroke:#008000;" x="232.101818" xlink:href="#m9082c2f923" y="53.568"/>
    </g>
   </g>
   <g id="PathCollection_46">
    <g clip-path="url(#p21de14b48b)">
     <use style="fill:#008000;stroke:#008000;" x="236.16" xlink:href="#m9082c2f923" y="53.568"/>
    </g>
   </g>
   <g id="PathCollection_47">
    <g clip-path="url(#p21de14b48b)">
     <use style="fill:#008000;stroke:#008000;" x="240.218182" xlink:href="#m9082c2f923" y="53.568"/>
    </g>
   </g>
   <g id="PathCollection_48">
    <g clip-path="url(#p21de14b48b)">
     <use style="fill:#008000;stroke:#008000;" x="244.276364" xlink:href="#m9082c2f923" y="53.568"/>
    </g>
   </g>
   <g id="PathCollection_49">
    <g clip-path="url(#p21de14b48b)">
     <use style="fill:#008000;stroke:#008000;" x="248.334545" xlink:href="#m9082c2f923" y="53.568"/>
    </g>
   </g>
   <g id="PathCollection_50">
    <g clip-path="url(#p21de14b48b)">
     <use style="fill:#008000;stroke:#008000;" x="252.392727" xlink:href="#m9082c2f923" y="53.568"/>
    </g>
   </g>
   <g id="PathCollection_51">
    <g clip-path="url(#p21de14b48b)">
     <use style="fill:#008000;stroke:#008000;" x="256.450909" xlink:href="#m9082c2f923" y="53.568"/>
    </g>
   </g>
   <g id="PathCollection_52">
    <g clip-path="url(#p21de14b48b)">
     <use style="fill:#008000;stroke:#008000;" x="260.509091" xlink:href="#m9082c2f923" y="53.568"/>
    </g>
   </g>
   <g id="PathCollection_53">
    <g clip-path="url(#p21de14b48b)">
     <use style="fill:#008000;stroke:#008000;" x="264.567273" xlink:href="#m9082c2f923" y="53.568"/>
    </g>
   </g>
   <g id="PathCollection_54">
    <g clip-path="url(#p21de14b48b)">
     <use style="fill:#008000;stroke:#008000;" x="268.625455" xlink:href="#m9082c2f923" y="55.767273"/>
    </g>
   </g>
   <g id="PathCollection_55">
    <g clip-path="url(#p21de14b48b)">
     <use style="fill:#008000;stroke:#008000;" x="272.683636" xlink:href="#m9082c2f923" y="55.767273"/>
    </g>
   </g>
   <g id="PathCollection_56">
    <g clip-path="url(#p21de14b48b)">
     <use style="fill:#008000;stroke:#008000;" x="276.741818" xlink:href="#m9082c2f923" y="55.767273"/>
    </g>
   </g>
   <g id="PathCollection_57">
    <g clip-path="url(#p21de14b48b)">
     <use style="fill:#008000;stroke:#008000;" x="280.8" xlink:href="#m9082c2f923" y="55.767273"/>
    </g>
   </g>
   <g id="PathCollection_58">
    <g clip-path="url(#p21de14b48b)">
     <use style="fill:#008000;stroke:#008000;" x="284.858182" xlink:href="#m9082c2f923" y="57.966545"/>
    </g>
   </g>
   <g id="PathCollection_59">
    <g clip-path="url(#p21de14b48b)">
     <use style="fill:#008000;stroke:#008000;" x="288.916364" xlink:href="#m9082c2f923" y="57.966545"/>
    </g>
   </g>
   <g id="PathCollection_60">
    <g clip-path="url(#p21de14b48b)">
     <use style="fill:#008000;stroke:#008000;" x="292.974545" xlink:href="#m9082c2f923" y="57.966545"/>
    </g>
   </g>
   <g id="PathCollection_61">
    <g clip-path="url(#p21de14b48b)">
     <use style="fill:#008000;stroke:#008000;" x="297.032727" xlink:href="#m9082c2f923" y="60.165818"/>
    </g>
   </g>
   <g id="PathCollection_62">
    <g clip-path="url(#p21de14b48b)">
     <use style="fill:#008000;stroke:#008000;" x="301.090909" xlink:href="#m9082c2f923" y="60.165818"/>
    </g>
   </g>
   <g id="PathCollection_63">
    <g clip-path="url(#p21de14b48b)">
     <use style="fill:#008000;stroke:#008000;" x="309.207273" xlink:href="#m9082c2f923" y="62.365091"/>
    </g>
   </g>
   <g id="PathCollection_64">
    <g clip-path="url(#p21de14b48b)">
     <use style="fill:#008000;stroke:#008000;" x="313.265455" xlink:href="#m9082c2f923" y="62.365091"/>
    </g>
   </g>
   <g id="PathCollection_65">
    <g clip-path="url(#p21de14b48b)">
     <use style="fill:#008000;stroke:#008000;" x="317.323636" xlink:href="#m9082c2f923" y="64.564364"/>
    </g>
   </g>
   <g id="PathCollection_66">
    <g clip-path="url(#p21de14b48b)">
     <use style="fill:#008000;stroke:#008000;" x="321.381818" xlink:href="#m9082c2f923" y="66.763636"/>
    </g>
   </g>
   <g id="PathCollection_67">
    <g clip-path="url(#p21de14b48b)">
     <use style="fill:#008000;stroke:#008000;" x="325.44" xlink:href="#m9082c2f923" y="68.962909"/>
    </g>
   </g>
   <g id="PathCollection_68">
    <g clip-path="url(#p21de14b48b)">
     <use style="fill:#008000;stroke:#008000;" x="325.44" xlink:href="#m9082c2f923" y="66.763636"/>
    </g>
   </g>
   <g id="PathCollection_69">
    <g clip-path="url(#p21de14b48b)">
     <use style="fill:#008000;stroke:#008000;" x="329.498182" xlink:href="#m9082c2f923" y="68.962909"/>
    </g>
   </g>
   <g id="PathCollection_70">
    <g clip-path="url(#p21de14b48b)">
     <use style="fill:#008000;stroke:#008000;" x="333.556364" xlink:href="#m9082c2f923" y="71.162182"/>
    </g>
   </g>
   <g id="PathCollection_71">
    <g clip-path="url(#p21de14b48b)">
     <use style="fill:#008000;stroke:#008000;" x="337.614545" xlink:href="#m9082c2f923" y="73.361455"/>
    </g>
   </g>
   <g id="PathCollection_72">
    <g clip-path="url(#p21de14b48b)">
     <use style="fill:#008000;stroke:#008000;" x="337.614545" xlink:href="#m9082c2f923" y="71.162182"/>
    </g>
   </g>
   <g id="PathCollection_73">
    <g clip-path="url(#p21de14b48b)">
     <use style="fill:#008000;stroke:#008000;" x="341.672727" xlink:href="#m9082c2f923" y="73.361455"/>
    </g>
   </g>
   <g id="PathCollection_74">
    <g clip-path="url(#p21de14b48b)">
     <use style="fill:#008000;stroke:#008000;" x="345.730909" xlink:href="#m9082c2f923" y="75.560727"/>
    </g>
   </g>
   <g id="PathCollection_75">
    <g clip-path="url(#p21de14b48b)">
     <use style="fill:#008000;stroke:#008000;" x="349.789091" xlink:href="#m9082c2f923" y="77.76"/>
    </g>
   </g>
   <g id="PathCollection_76">
    <g clip-path="url(#p21de14b48b)">
     <use style="fill:#008000;stroke:#008000;" x="353.847273" xlink:href="#m9082c2f923" y="79.959273"/>
    </g>
   </g>
   <g id="PathCollection_77">
    <g clip-path="url(#p21de14b48b)">
     <use style="fill:#008000;stroke:#008000;" x="357.905455" xlink:href="#m9082c2f923" y="82.158545"/>
    </g>
   </g>
   <g id="PathCollection_78">
    <g clip-path="url(#p21de14b48b)">
     <use style="fill:#008000;stroke:#008000;" x="361.963636" xlink:href="#m9082c2f923" y="84.357818"/>
    </g>
   </g>
   <g id="PathCollection_79">
    <g clip-path="url(#p21de14b48b)">
     <use style="fill:#008000;stroke:#008000;" x="366.021818" xlink:href="#m9082c2f923" y="88.756364"/>
    </g>
   </g>
   <g id="PathCollection_80">
    <g clip-path="url(#p21de14b48b)">
     <use style="fill:#008000;stroke:#008000;" x="366.021818" xlink:href="#m9082c2f923" y="86.557091"/>
    </g>
   </g>
   <g id="PathCollection_81">
    <g clip-path="url(#p21de14b48b)">
     <use style="fill:#008000;stroke:#008000;" x="370.08" xlink:href="#m9082c2f923" y="90.955636"/>
    </g>
   </g>
   <g id="PathCollection_82">
    <g clip-path="url(#p21de14b48b)">
     <use style="fill:#008000;stroke:#008000;" x="370.08" xlink:href="#m9082c2f923" y="88.756364"/>
    </g>
   </g>
   <g id="PathCollection_83">
    <g clip-path="url(#p21de14b48b)">
     <use style="fill:#008000;stroke:#008000;" x="374.138182" xlink:href="#m9082c2f923" y="93.154909"/>
    </g>
   </g>
   <g id="PathCollection_84">
    <g clip-path="url(#p21de14b48b)">
     <use style="fill:#008000;stroke:#008000;" x="378.196364" xlink:href="#m9082c2f923" y="97.553455"/>
    </g>
   </g>
   <g id="PathCollection_85">
    <g clip-path="url(#p21de14b48b)">
     <use style="fill:#008000;stroke:#008000;" x="378.196364" xlink:href="#m9082c2f923" y="95.354182"/>
    </g>
   </g>
   <g id="PathCollection_86">
    <g clip-path="url(#p21de14b48b)">
     <use style="fill:#008000;stroke:#008000;" x="382.254545" xlink:href="#m9082c2f923" y="101.952"/>
    </g>
   </g>
   <g id="PathCollection_87">
    <g clip-path="url(#p21de14b48b)">
     <use style="fill:#008000;stroke:#008000;" x="382.254545" xlink:href="#m9082c2f923" y="99.752727"/>
    </g>
   </g>
   <g id="PathCollection_88">
    <g clip-path="url(#p21de14b48b)">
     <use style="fill:#008000;stroke:#008000;" x="386.312727" xlink:href="#m9082c2f923" y="106.350545"/>
    </g>
   </g>
   <g id="PathCollection_89">
    <g clip-path="url(#p21de14b48b)">
     <use style="fill:#008000;stroke:#008000;" x="386.312727" xlink:href="#m9082c2f923" y="104.151273"/>
    </g>
   </g>
   <g id="PathCollection_90">
    <g clip-path="url(#p21de14b48b)">
     <use style="fill:#008000;stroke:#008000;" x="390.370909" xlink:href="#m9082c2f923" y="110.749091"/>
    </g>
   </g>
   <g id="PathCollection_91">
    <g clip-path="url(#p21de14b48b)">
     <use style="fill:#008000;stroke:#008000;" x="390.370909" xlink:href="#m9082c2f923" y="108.549818"/>
    </g>
   </g>
   <g id="PathCollection_92">
    <g clip-path="url(#p21de14b48b)">
     <use style="fill:#008000;stroke:#008000;" x="394.429091" xlink:href="#m9082c2f923" y="115.147636"/>
    </g>
   </g>
   <g id="PathCollection_93">
    <g clip-path="url(#p21de14b48b)">
     <use style="fill:#008000;stroke:#008000;" x="394.429091" xlink:href="#m9082c2f923" y="112.948364"/>
    </g>
   </g>
   <g id="PathCollection_94">
    <g clip-path="url(#p21de14b48b)">
     <use style="fill:#008000;stroke:#008000;" x="398.487273" xlink:href="#m9082c2f923" y="121.745455"/>
    </g>
   </g>
   <g id="PathCollection_95">
    <defs>
     <path d="M 0 1.118034 
C 0.296506 1.118034 0.580908 1.000231 0.790569 0.790569 
C 1.000231 0.580908 1.118034 0.296506 1.118034 0 
C 1.118034 -0.296506 1.000231 -0.580908 0.790569 -0.790569 
C 0.580908 -1.000231 0.296506 -1.118034 0 -1.118034 
C -0.296506 -1.118034 -0.580908 -1.000231 -0.790569 -0.790569 
C -1.000231 -0.580908 -1.118034 -0.296506 -1.118034 0 
C -1.118034 0.296506 -1.000231 0.580908 -0.790569 0.790569 
C -0.580908 1.000231 -0.296506 1.118034 0 1.118034 
z
" id="mb2e07b210c" style="stroke:#ff0000;"/>
    </defs>
    <g clip-path="url(#p21de14b48b)">
     <use style="fill:#ff0000;stroke:#ff0000;" x="73.832727" xlink:href="#mb2e07b210c" y="121.745455"/>
    </g>
   </g>
   <g id="PathCollection_96">
    <g clip-path="url(#p21de14b48b)">
     <use style="fill:#ff0000;stroke:#ff0000;" x="357.905455" xlink:href="#mb2e07b210c" y="209.716364"/>
    </g>
   </g>
   <g id="PathCollection_97">
    <g clip-path="url(#p21de14b48b)">
     <use style="fill:#ff0000;stroke:#ff0000;" x="195.578182" xlink:href="#mb2e07b210c" y="209.716364"/>
    </g>
   </g>
   <g id="PathCollection_98">
    <g clip-path="url(#p21de14b48b)">
     <use style="fill:#ff0000;stroke:#ff0000;" x="317.323636" xlink:href="#mb2e07b210c" y="209.716364"/>
    </g>
   </g>
   <g id="PathCollection_99">
    <defs>
     <path d="M 0 2.236068 
C 0.593012 2.236068 1.161816 2.000462 1.581139 1.581139 
C 2.000462 1.161816 2.236068 0.593012 2.236068 0 
C 2.236068 -0.593012 2.000462 -1.161816 1.581139 -1.581139 
C 1.161816 -2.000462 0.593012 -2.236068 0 -2.236068 
C -0.593012 -2.236068 -1.161816 -2.000462 -1.581139 -1.581139 
C -2.000462 -1.161816 -2.236068 -0.593012 -2.236068 0 
C -2.236068 0.593012 -2.000462 1.161816 -1.581139 1.581139 
C -1.161816 2.000462 -0.593012 2.236068 0 2.236068 
z
" id="ma80673df4d" style="stroke:#0000ff;"/>
    </defs>
    <g clip-path="url(#p21de14b48b)">
     <use style="fill:#0000ff;stroke:#0000ff;" x="398.487273" xlink:href="#ma80673df4d" y="121.745455"/>
    </g>
   </g>
   <g id="matplotlib.axis_1">
    <g id="xtick_1">
     <g id="line2d_1">
      <defs>
       <path d="M 0 0 
L 0 3.5 
" id="m264790c881" style="stroke:#000000;stroke-width:0.8;"/>
      </defs>
      <g>
       <use style="stroke:#000000;stroke-width:0.8;" x="73.832727" xlink:href="#m264790c881" y="307.584"/>
      </g>
     </g>
     <g id="text_1">
      <!-- 2 -->
      <g transform="translate(71.332727 321.459)scale(0.1 -0.1)">
       <defs>
        <path d="M 300 250 
Q 325 625 650 925 
Q 975 1225 1475 1862 
Q 1975 2500 2125 2850 
Q 2275 3200 2237 3450 
Q 2200 3700 2000 3862 
Q 1800 4025 1537 4000 
Q 1275 3975 1037 3800 
Q 800 3625 675 3275 
L 200 3350 
Q 400 3925 712 4187 
Q 1025 4450 1450 4475 
Q 1700 4500 1900 4462 
Q 2100 4425 2312 4287 
Q 2525 4150 2662 3875 
Q 2800 3600 2762 3212 
Q 2725 2825 2375 2287 
Q 2025 1750 1025 600 
L 2825 600 
L 2825 150 
L 300 150 
L 300 250 
z
" id="SimHei-32" transform="scale(0.015625)"/>
       </defs>
       <use xlink:href="#SimHei-32"/>
      </g>
     </g>
    </g>
    <g id="xtick_2">
     <g id="line2d_2">
      <g>
       <use style="stroke:#000000;stroke-width:0.8;" x="114.414545" xlink:href="#m264790c881" y="307.584"/>
      </g>
     </g>
     <g id="text_2">
      <!-- 3 -->
      <g transform="translate(111.914545 321.459)scale(0.1 -0.1)">
       <defs>
        <path d="M 250 1225 
L 700 1300 
Q 800 975 1025 762 
Q 1250 550 1587 562 
Q 1925 575 2125 837 
Q 2325 1100 2300 1437 
Q 2275 1775 2037 1962 
Q 1800 2150 1275 2225 
L 1275 2550 
Q 1800 2600 2037 2825 
Q 2275 3050 2250 3412 
Q 2225 3775 1925 3937 
Q 1625 4100 1287 3975 
Q 950 3850 750 3275 
L 300 3350 
Q 450 3800 712 4100 
Q 975 4400 1425 4450 
Q 1875 4500 2212 4337 
Q 2550 4175 2687 3837 
Q 2825 3500 2725 3100 
Q 2625 2700 2150 2400 
Q 2500 2250 2687 1950 
Q 2875 1650 2812 1162 
Q 2750 675 2375 375 
Q 2000 75 1525 87 
Q 1050 100 700 387 
Q 350 675 250 1225 
z
" id="SimHei-33" transform="scale(0.015625)"/>
       </defs>
       <use xlink:href="#SimHei-33"/>
      </g>
     </g>
    </g>
    <g id="xtick_3">
     <g id="line2d_3">
      <g>
       <use style="stroke:#000000;stroke-width:0.8;" x="154.996364" xlink:href="#m264790c881" y="307.584"/>
      </g>
     </g>
     <g id="text_3">
      <!-- 4 -->
      <g transform="translate(152.496364 321.459)scale(0.1 -0.1)">
       <defs>
        <path d="M 2000 1100 
L 75 1100 
L 75 1525 
L 2100 4450 
L 2475 4450 
L 2475 1525 
L 3075 1525 
L 3075 1100 
L 2475 1100 
L 2475 150 
L 2000 150 
L 2000 1100 
z
M 2000 1525 
L 2000 3500 
L 600 1525 
L 2000 1525 
z
" id="SimHei-34" transform="scale(0.015625)"/>
       </defs>
       <use xlink:href="#SimHei-34"/>
      </g>
     </g>
    </g>
    <g id="xtick_4">
     <g id="line2d_4">
      <g>
       <use style="stroke:#000000;stroke-width:0.8;" x="195.578182" xlink:href="#m264790c881" y="307.584"/>
      </g>
     </g>
     <g id="text_4">
      <!-- 5 -->
      <g transform="translate(193.078182 321.459)scale(0.1 -0.1)">
       <defs>
        <path d="M 550 1325 
Q 725 650 1150 575 
Q 1575 500 1837 662 
Q 2100 825 2212 1087 
Q 2325 1350 2312 1675 
Q 2300 2000 2137 2225 
Q 1975 2450 1725 2525 
Q 1475 2600 1162 2525 
Q 850 2450 650 2175 
L 225 2225 
Q 275 2375 700 4375 
L 2675 4375 
L 2675 3925 
L 1075 3925 
Q 950 3250 825 2850 
Q 1200 3025 1525 3012 
Q 1850 3000 2150 2862 
Q 2450 2725 2587 2487 
Q 2725 2250 2787 2012 
Q 2850 1775 2837 1500 
Q 2825 1225 2725 937 
Q 2625 650 2425 462 
Q 2225 275 1937 162 
Q 1650 50 1275 75 
Q 900 100 562 350 
Q 225 600 100 1200 
L 550 1325 
z
" id="SimHei-35" transform="scale(0.015625)"/>
       </defs>
       <use xlink:href="#SimHei-35"/>
      </g>
     </g>
    </g>
    <g id="xtick_5">
     <g id="line2d_5">
      <g>
       <use style="stroke:#000000;stroke-width:0.8;" x="236.16" xlink:href="#m264790c881" y="307.584"/>
      </g>
     </g>
     <g id="text_5">
      <!-- 6 -->
      <g transform="translate(233.66 321.459)scale(0.1 -0.1)">
       <defs>
        <path d="M 250 1612 
Q 275 1975 387 2225 
Q 500 2475 725 2850 
L 1750 4450 
L 2325 4450 
L 1275 2800 
Q 1950 2975 2350 2750 
Q 2750 2525 2887 2237 
Q 3025 1950 3037 1612 
Q 3050 1275 2937 950 
Q 2825 625 2537 362 
Q 2250 100 1737 75 
Q 1225 50 862 262 
Q 500 475 362 862 
Q 225 1250 250 1612 
z
M 1025 787 
Q 1250 550 1625 525 
Q 2000 500 2250 775 
Q 2500 1050 2500 1575 
Q 2500 2100 2187 2300 
Q 1875 2500 1487 2450 
Q 1100 2400 925 2075 
Q 750 1750 775 1387 
Q 800 1025 1025 787 
z
" id="SimHei-36" transform="scale(0.015625)"/>
       </defs>
       <use xlink:href="#SimHei-36"/>
      </g>
     </g>
    </g>
    <g id="xtick_6">
     <g id="line2d_6">
      <g>
       <use style="stroke:#000000;stroke-width:0.8;" x="276.741818" xlink:href="#m264790c881" y="307.584"/>
      </g>
     </g>
     <g id="text_6">
      <!-- 7 -->
      <g transform="translate(274.241818 321.459)scale(0.1 -0.1)">
       <defs>
        <path d="M 850 150 
Q 1300 2050 2425 3925 
L 275 3925 
L 275 4375 
L 2950 4375 
L 2950 3950 
Q 1775 2050 1400 150 
L 850 150 
z
" id="SimHei-37" transform="scale(0.015625)"/>
       </defs>
       <use xlink:href="#SimHei-37"/>
      </g>
     </g>
    </g>
    <g id="xtick_7">
     <g id="line2d_7">
      <g>
       <use style="stroke:#000000;stroke-width:0.8;" x="317.323636" xlink:href="#m264790c881" y="307.584"/>
      </g>
     </g>
     <g id="text_7">
      <!-- 8 -->
      <g transform="translate(314.823636 321.459)scale(0.1 -0.1)">
       <defs>
        <path d="M 175 1375 
Q 175 1675 325 1962 
Q 475 2250 825 2425 
Q 525 2600 425 2812 
Q 325 3025 312 3300 
Q 300 3575 387 3775 
Q 475 3975 650 4150 
Q 825 4325 1037 4387 
Q 1250 4450 1500 4450 
Q 1750 4450 1950 4400 
Q 2150 4350 2375 4187 
Q 2600 4025 2700 3725 
Q 2800 3425 2687 3025 
Q 2575 2625 2100 2400 
Q 2525 2275 2700 2012 
Q 2875 1750 2875 1375 
Q 2875 1000 2762 775 
Q 2650 550 2512 400 
Q 2375 250 2137 162 
Q 1900 75 1537 75 
Q 1175 75 912 162 
Q 650 250 475 425 
Q 300 600 237 837 
Q 175 1075 175 1375 
z
M 687 1400 
Q 675 1100 787 875 
Q 900 650 1200 587 
Q 1500 525 1825 600 
Q 2150 675 2275 950 
Q 2400 1225 2362 1500 
Q 2325 1775 2050 1962 
Q 1775 2150 1450 2125 
Q 1125 2100 912 1900 
Q 700 1700 687 1400 
z
M 775 3350 
Q 775 3100 950 2875 
Q 1125 2650 1500 2650 
Q 1875 2650 2062 2875 
Q 2250 3100 2237 3412 
Q 2225 3725 2012 3875 
Q 1800 4025 1437 4000 
Q 1075 3975 925 3787 
Q 775 3600 775 3350 
z
" id="SimHei-38" transform="scale(0.015625)"/>
       </defs>
       <use xlink:href="#SimHei-38"/>
      </g>
     </g>
    </g>
    <g id="xtick_8">
     <g id="line2d_8">
      <g>
       <use style="stroke:#000000;stroke-width:0.8;" x="357.905455" xlink:href="#m264790c881" y="307.584"/>
      </g>
     </g>
     <g id="text_8">
      <!-- 9 -->
      <g transform="translate(355.405455 321.459)scale(0.1 -0.1)">
       <defs>
        <path d="M 800 75 
Q 1350 1000 1700 1750 
Q 1075 1650 662 1912 
Q 250 2175 162 2625 
Q 75 3075 175 3437 
Q 275 3800 487 4037 
Q 700 4275 1000 4375 
Q 1300 4475 1537 4475 
Q 1775 4475 2025 4375 
Q 2275 4275 2475 4075 
Q 2675 3875 2750 3662 
Q 2825 3450 2825 3112 
Q 2825 2775 2575 2250 
Q 2325 1725 1350 75 
L 800 75 
z
M 662 2875 
Q 700 2550 937 2337 
Q 1175 2125 1450 2150 
Q 1725 2175 1887 2300 
Q 2050 2425 2200 2725 
Q 2300 3100 2250 3362 
Q 2200 3625 1987 3800 
Q 1775 3975 1525 3975 
Q 1375 4000 1137 3900 
Q 900 3800 762 3500 
Q 625 3200 662 2875 
z
" id="SimHei-39" transform="scale(0.015625)"/>
       </defs>
       <use xlink:href="#SimHei-39"/>
      </g>
     </g>
    </g>
    <g id="xtick_9">
     <g id="line2d_9">
      <g>
       <use style="stroke:#000000;stroke-width:0.8;" x="398.487273" xlink:href="#m264790c881" y="307.584"/>
      </g>
     </g>
     <g id="text_9">
      <!-- 10 -->
      <g transform="translate(393.487273 321.459)scale(0.1 -0.1)">
       <defs>
        <path d="M 1400 3600 
Q 1075 3275 575 2975 
L 575 3450 
Q 1200 3875 1600 4450 
L 1900 4450 
L 1900 150 
L 1400 150 
L 1400 3600 
z
" id="SimHei-31" transform="scale(0.015625)"/>
        <path d="M 225 2537 
Q 250 3200 412 3587 
Q 575 3975 875 4225 
Q 1175 4475 1612 4475 
Q 2050 4475 2375 4112 
Q 2700 3750 2800 3200 
Q 2900 2650 2862 1937 
Q 2825 1225 2612 775 
Q 2400 325 1975 150 
Q 1550 -25 1125 187 
Q 700 400 525 750 
Q 350 1100 275 1487 
Q 200 1875 225 2537 
z
M 750 2687 
Q 675 2000 800 1462 
Q 925 925 1212 700 
Q 1500 475 1800 612 
Q 2100 750 2237 1162 
Q 2375 1575 2375 2062 
Q 2375 2550 2337 2950 
Q 2300 3350 2112 3675 
Q 1925 4000 1612 4012 
Q 1300 4025 1062 3700 
Q 825 3375 750 2687 
z
" id="SimHei-30" transform="scale(0.015625)"/>
       </defs>
       <use xlink:href="#SimHei-31"/>
       <use x="50" xlink:href="#SimHei-30"/>
      </g>
     </g>
    </g>
    <g id="text_10">
     <!-- y轴 -->
     <g transform="translate(228.66 334.912125)scale(0.1 -0.1)">
      <defs>
       <path d="M 2900 2925 
L 1750 -100 
Q 1650 -450 1450 -625 
Q 1250 -800 950 -800 
Q 825 -800 712 -787 
Q 600 -775 500 -725 
L 500 -225 
Q 600 -275 700 -300 
Q 800 -325 875 -325 
Q 1075 -325 1150 -262 
Q 1225 -200 1300 25 
L 200 2925 
L 750 2925 
L 1550 725 
L 1575 725 
L 2350 2925 
L 2900 2925 
z
" id="SimHei-79" transform="scale(0.015625)"/>
       <path d="M 4200 3900 
Q 4200 4775 4175 5175 
L 4700 5175 
Q 4675 4800 4675 3900 
L 5950 3900 
Q 5925 3025 5925 1675 
Q 5925 325 5950 -525 
L 5450 -525 
L 5450 100 
L 3425 100 
L 3425 -575 
L 2950 -575 
Q 2975 325 2975 1675 
Q 2975 3025 2950 3900 
L 4200 3900 
z
M 2725 950 
Q 2250 900 2075 875 
Q 2075 200 2100 -600 
L 1575 -600 
Q 1600 200 1600 800 
Q 700 650 450 575 
Q 400 800 275 1075 
Q 700 1100 1600 1250 
L 1600 2075 
L 1100 2075 
Q 850 2075 525 2000 
L 300 2475 
Q 525 2600 700 3025 
Q 875 3450 1025 3925 
Q 700 3925 325 3900 
L 325 4350 
Q 700 4325 1125 4325 
Q 1300 4825 1375 5250 
Q 1625 5150 1925 5100 
Q 1825 4925 1600 4325 
Q 2175 4325 2750 4350 
L 2750 3900 
Q 2200 3925 1475 3925 
Q 1150 3000 925 2475 
L 1600 2475 
Q 1600 3050 1575 3400 
L 2100 3400 
Q 2075 3100 2075 2475 
Q 2425 2475 2625 2500 
L 2625 2050 
Q 2450 2075 2075 2075 
L 2075 1300 
L 2775 1400 
Q 2725 1175 2725 950 
z
M 4200 525 
L 4200 1850 
L 3425 1850 
L 3425 525 
L 4200 525 
z
M 5450 525 
L 5450 1850 
L 4675 1850 
L 4675 525 
L 5450 525 
z
M 4200 2250 
L 4200 3475 
L 3425 3475 
L 3425 2250 
L 4200 2250 
z
M 5450 2250 
L 5450 3475 
L 4675 3475 
L 4675 2250 
L 5450 2250 
z
" id="SimHei-8f74" transform="scale(0.015625)"/>
      </defs>
      <use xlink:href="#SimHei-79"/>
      <use x="50" xlink:href="#SimHei-8f74"/>
     </g>
    </g>
   </g>
   <g id="matplotlib.axis_2">
    <g id="ytick_1">
     <g id="line2d_10">
      <defs>
       <path d="M 0 0 
L -3.5 0 
" id="m35f0047a62" style="stroke:#000000;stroke-width:0.8;"/>
      </defs>
      <g>
       <use style="stroke:#000000;stroke-width:0.8;" x="57.6" xlink:href="#m35f0047a62" y="297.687273"/>
      </g>
     </g>
     <g id="text_11">
      <!-- 0 -->
      <g transform="translate(45.6 301.124773)scale(0.1 -0.1)">
       <use xlink:href="#SimHei-30"/>
      </g>
     </g>
    </g>
    <g id="ytick_2">
     <g id="line2d_11">
      <g>
       <use style="stroke:#000000;stroke-width:0.8;" x="57.6" xlink:href="#m35f0047a62" y="253.701818"/>
      </g>
     </g>
     <g id="text_12">
      <!-- 2 -->
      <g transform="translate(45.6 257.139318)scale(0.1 -0.1)">
       <use xlink:href="#SimHei-32"/>
      </g>
     </g>
    </g>
    <g id="ytick_3">
     <g id="line2d_12">
      <g>
       <use style="stroke:#000000;stroke-width:0.8;" x="57.6" xlink:href="#m35f0047a62" y="209.716364"/>
      </g>
     </g>
     <g id="text_13">
      <!-- 4 -->
      <g transform="translate(45.6 213.153864)scale(0.1 -0.1)">
       <use xlink:href="#SimHei-34"/>
      </g>
     </g>
    </g>
    <g id="ytick_4">
     <g id="line2d_13">
      <g>
       <use style="stroke:#000000;stroke-width:0.8;" x="57.6" xlink:href="#m35f0047a62" y="165.730909"/>
      </g>
     </g>
     <g id="text_14">
      <!-- 6 -->
      <g transform="translate(45.6 169.168409)scale(0.1 -0.1)">
       <use xlink:href="#SimHei-36"/>
      </g>
     </g>
    </g>
    <g id="ytick_5">
     <g id="line2d_14">
      <g>
       <use style="stroke:#000000;stroke-width:0.8;" x="57.6" xlink:href="#m35f0047a62" y="121.745455"/>
      </g>
     </g>
     <g id="text_15">
      <!-- 8 -->
      <g transform="translate(45.6 125.182955)scale(0.1 -0.1)">
       <use xlink:href="#SimHei-38"/>
      </g>
     </g>
    </g>
    <g id="ytick_6">
     <g id="line2d_15">
      <g>
       <use style="stroke:#000000;stroke-width:0.8;" x="57.6" xlink:href="#m35f0047a62" y="77.76"/>
      </g>
     </g>
     <g id="text_16">
      <!-- 10 -->
      <g transform="translate(40.6 81.1975)scale(0.1 -0.1)">
       <use xlink:href="#SimHei-31"/>
       <use x="50" xlink:href="#SimHei-30"/>
      </g>
     </g>
    </g>
    <g id="text_17">
     <!-- x轴 -->
     <g transform="translate(35.35 182.028)rotate(-90)scale(0.1 -0.1)">
      <defs>
       <path d="M 2875 125 
L 2275 125 
L 1550 1200 
L 825 125 
L 225 125 
L 1250 1550 
L 300 2925 
L 900 2925 
L 1550 1875 
L 2200 2925 
L 2800 2925 
L 1850 1550 
L 2875 125 
z
" id="SimHei-78" transform="scale(0.015625)"/>
      </defs>
      <use xlink:href="#SimHei-78"/>
      <use x="50" xlink:href="#SimHei-8f74"/>
     </g>
    </g>
   </g>
   <g id="patch_3">
    <path d="M 57.6 307.584 
L 57.6 41.472 
" style="fill:none;stroke:#000000;stroke-linecap:square;stroke-linejoin:miter;stroke-width:0.8;"/>
   </g>
   <g id="patch_4">
    <path d="M 414.72 307.584 
L 414.72 41.472 
" style="fill:none;stroke:#000000;stroke-linecap:square;stroke-linejoin:miter;stroke-width:0.8;"/>
   </g>
   <g id="patch_5">
    <path d="M 57.6 307.584 
L 414.72 307.584 
" style="fill:none;stroke:#000000;stroke-linecap:square;stroke-linejoin:miter;stroke-width:0.8;"/>
   </g>
   <g id="patch_6">
    <path d="M 57.6 41.472 
L 414.72 41.472 
" style="fill:none;stroke:#000000;stroke-linecap:square;stroke-linejoin:miter;stroke-width:0.8;"/>
   </g>
   <g id="text_18">
    <!-- G值更新时候的预测点位置表 -->
    <g transform="translate(161.16 35.472)scale(0.12 -0.12)">
     <defs>
      <path d="M 2850 75 
L 2425 75 
L 2350 425 
Q 2250 275 2037 175 
Q 1825 75 1575 75 
Q 1050 75 637 562 
Q 225 1050 225 2125 
Q 225 3300 600 3875 
Q 975 4450 1625 4450 
Q 2200 4450 2525 4025 
Q 2850 3600 2850 2925 
L 2300 2925 
Q 2300 3450 2125 3712 
Q 1950 3975 1625 3975 
Q 1225 3975 1025 3562 
Q 825 3150 825 2175 
Q 825 1250 1075 900 
Q 1325 550 1650 550 
Q 1975 550 2162 787 
Q 2350 1025 2350 1525 
L 2350 1800 
L 1575 1800 
L 1575 2275 
L 2850 2275 
L 2850 75 
z
" id="SimHei-47" transform="scale(0.015625)"/>
      <path d="M 3675 4450 
L 3675 5100 
Q 3975 5075 4350 5050 
Q 4225 4875 4200 4450 
L 5125 4450 
Q 5550 4450 5875 4475 
L 5875 4025 
Q 5525 4050 5125 4050 
L 4175 4050 
L 4125 3500 
L 5400 3500 
Q 5375 3200 5375 2700 
L 5375 150 
Q 5875 150 6100 175 
L 6100 -275 
Q 5775 -250 5200 -250 
L 2850 -250 
Q 2275 -250 1900 -275 
L 1900 175 
Q 2125 150 2600 150 
L 2600 2700 
Q 2600 3175 2575 3500 
L 3600 3500 
L 3650 4050 
L 3200 4050 
Q 2575 4050 2225 4025 
L 2225 4475 
Q 2550 4450 3200 4450 
L 3675 4450 
z
M 2225 4900 
Q 2025 4675 1650 3750 
L 1650 450 
Q 1650 -75 1675 -550 
L 1150 -550 
Q 1175 -125 1175 375 
L 1175 2950 
Q 875 2450 625 2150 
Q 425 2425 250 2575 
Q 500 2825 937 3537 
Q 1375 4250 1625 5150 
Q 1975 4975 2225 4900 
z
M 4925 2650 
L 4925 3150 
L 3075 3150 
L 3075 2650 
L 4925 2650 
z
M 4925 150 
L 4925 625 
L 3075 625 
L 3075 150 
L 4925 150 
z
M 4925 1000 
L 4925 1450 
L 3075 1450 
L 3075 1000 
L 4925 1000 
z
M 4925 1825 
L 4925 2275 
L 3075 2275 
L 3075 1825 
L 4925 1825 
z
" id="SimHei-503c" transform="scale(0.015625)"/>
      <path d="M 5175 4750 
Q 5400 4750 5800 4775 
L 5800 4325 
Q 5475 4350 5175 4350 
L 3475 4350 
L 3475 3825 
L 5300 3825 
Q 5275 3400 5275 2675 
Q 5275 1975 5300 1550 
L 3400 1550 
Q 3325 1025 3050 575 
Q 3425 350 4137 175 
Q 4850 0 5237 -25 
Q 5625 -50 6000 -50 
Q 5850 -175 5750 -575 
Q 5075 -525 4250 -337 
Q 3425 -150 2775 200 
Q 2525 -25 2037 -262 
Q 1550 -500 600 -650 
Q 500 -375 350 -175 
Q 1075 -150 1612 37 
Q 2150 225 2400 450 
Q 1925 775 1400 1275 
Q 1550 1375 1700 1550 
L 1100 1550 
Q 1125 2025 1125 2725 
Q 1125 3450 1100 3825 
L 3000 3825 
L 3000 4350 
L 1450 4350 
Q 1050 4350 600 4325 
L 600 4775 
Q 1050 4750 1425 4750 
L 5175 4750 
z
M 2975 1975 
Q 3000 2250 3000 2525 
L 1625 2525 
L 1625 1975 
L 2975 1975 
z
M 3000 2925 
L 3000 3450 
L 1625 3450 
L 1625 2925 
L 3000 2925 
z
M 4775 1975 
L 4775 2525 
L 3475 2525 
Q 3475 2350 3450 1975 
L 4775 1975 
z
M 4775 2925 
L 4775 3450 
L 3475 3450 
L 3475 2925 
L 4775 2925 
z
M 1775 1550 
Q 2225 1075 2675 800 
Q 2875 1175 2925 1550 
L 1775 1550 
z
" id="SimHei-66f4" transform="scale(0.015625)"/>
      <path d="M 6125 4650 
Q 5750 4650 4275 4500 
L 4275 3225 
L 5575 3225 
Q 5850 3225 6150 3250 
L 6150 2775 
Q 5800 2800 5550 2800 
L 5550 225 
Q 5550 -200 5575 -675 
L 5050 -675 
Q 5075 -200 5075 200 
L 5075 2800 
L 4275 2800 
Q 4275 2175 4225 1600 
Q 4175 1025 4012 462 
Q 3850 -100 3525 -700 
Q 3275 -550 3025 -450 
Q 3425 125 3587 762 
Q 3750 1400 3775 1875 
Q 3800 2350 3800 3300 
Q 3800 4275 3775 4850 
Q 4900 4900 5800 5200 
Q 6000 4800 6125 4650 
z
M 2975 3825 
Q 2800 3725 2575 3050 
Q 3000 3050 3450 3075 
L 3450 2575 
Q 3025 2600 2175 2600 
L 2175 1975 
Q 2950 1975 3400 2000 
L 3400 1500 
Q 2950 1525 2175 1525 
L 2175 0 
Q 2175 -375 1937 -500 
Q 1700 -625 1325 -625 
Q 1225 -325 1075 -75 
Q 1425 -100 1562 -75 
Q 1700 -50 1700 150 
L 1700 1525 
Q 900 1525 450 1500 
L 450 2000 
Q 925 1975 1700 1975 
L 1700 2600 
Q 775 2600 325 2575 
L 325 3075 
Q 775 3050 1175 3050 
L 2125 3050 
Q 2325 3650 2425 3975 
Q 2625 3925 2975 3825 
z
M 2125 5275 
Q 2250 4750 2275 4550 
Q 2850 4550 3350 4575 
L 3350 4075 
Q 2825 4100 2500 4100 
L 1300 4100 
Q 875 4100 475 4075 
L 475 4575 
Q 900 4550 1300 4550 
L 1750 4550 
Q 1700 4825 1600 5125 
Q 1850 5200 2125 5275 
z
M 1525 1050 
Q 1375 875 1175 612 
Q 975 350 600 -125 
Q 425 50 225 175 
Q 750 750 1050 1375 
Q 1300 1175 1525 1050 
z
M 2725 1300 
Q 3025 900 3275 475 
Q 3025 350 2875 150 
Q 2675 600 2350 1025 
Q 2525 1175 2725 1300 
z
M 1275 3950 
Q 1450 3600 1575 3250 
Q 1350 3200 1150 3100 
Q 1025 3475 875 3775 
Q 1050 3875 1275 3950 
z
" id="SimHei-65b0" transform="scale(0.015625)"/>
      <path d="M 2525 4575 
Q 2500 3675 2500 2400 
Q 2500 1125 2525 400 
L 2000 400 
L 2000 875 
L 1000 875 
L 1000 50 
L 475 50 
Q 500 1200 500 2350 
Q 500 3525 475 4575 
L 2525 4575 
z
M 4875 3825 
Q 4875 4575 4850 5225 
L 5400 5225 
Q 5375 4575 5375 3825 
Q 5750 3825 6175 3850 
L 6175 3375 
Q 5750 3400 5375 3400 
L 5375 50 
Q 5375 -325 5075 -425 
Q 4775 -525 4300 -575 
Q 4300 -275 4025 0 
Q 4500 -50 4687 -25 
Q 4875 0 4875 300 
L 4875 3400 
Q 3625 3400 2775 3375 
L 2775 3850 
Q 3575 3825 4875 3825 
z
M 2000 1300 
L 2000 2550 
L 1000 2550 
L 1000 1300 
L 2000 1300 
z
M 2000 2975 
L 2000 4150 
L 1000 4150 
L 1000 2975 
L 2000 2975 
z
M 3550 2725 
Q 3875 2200 4175 1600 
Q 3925 1525 3650 1375 
Q 3450 1975 3075 2500 
Q 3300 2600 3550 2725 
z
" id="SimHei-65f6" transform="scale(0.015625)"/>
      <path d="M 2725 2150 
Q 3225 2900 3350 3400 
Q 3700 3275 3850 3225 
Q 3775 3150 3625 2825 
L 4875 2825 
Q 5275 2825 5600 2850 
L 5600 2400 
Q 5250 2425 4875 2425 
L 4550 2425 
Q 4525 2200 4475 1650 
L 5175 1650 
Q 5625 1650 5975 1675 
L 5975 1225 
Q 5650 1250 5175 1250 
L 4550 1250 
Q 5200 175 6150 -50 
Q 5950 -200 5800 -550 
Q 4750 -75 4275 900 
Q 3900 0 2625 -625 
Q 2475 -375 2200 -200 
Q 3600 250 3950 1250 
L 3600 1250 
Q 3200 1250 2625 1225 
L 2625 1675 
Q 3200 1650 3600 1650 
L 4025 1650 
Q 4075 2175 4100 2425 
L 3425 2425 
Q 3275 2175 3150 1950 
Q 2950 2050 2725 2150 
z
M 1875 5025 
Q 1725 4800 1450 3925 
L 1450 675 
Q 1450 -150 1500 -550 
L 975 -550 
Q 1000 -100 1000 700 
L 1000 3025 
Q 850 2675 550 2200 
Q 375 2425 200 2550 
Q 450 2875 787 3587 
Q 1125 4300 1300 5250 
Q 1475 5150 1875 5025 
z
M 3775 4575 
Q 3350 4575 2950 4550 
L 2950 5025 
Q 3325 4975 3775 4975 
L 5250 4975 
Q 5075 4325 4975 3875 
L 5300 3875 
Q 5750 3875 6075 3900 
L 6075 3425 
Q 5750 3475 5300 3475 
L 3475 3475 
Q 2925 3475 2600 3425 
L 2600 3900 
Q 2900 3875 3475 3875 
L 4475 3875 
Q 4550 4175 4600 4575 
L 3775 4575 
z
M 2400 4125 
Q 2375 3850 2375 3550 
L 2375 1325 
Q 2375 1000 2400 725 
L 1900 725 
Q 1925 1000 1925 1325 
L 1925 3475 
Q 1925 3825 1900 4125 
L 2400 4125 
z
" id="SimHei-5019" transform="scale(0.015625)"/>
      <path d="M 2100 4975 
Q 1975 4750 1750 3950 
L 2875 3950 
Q 2850 3525 2850 2875 
L 2850 675 
Q 2850 300 2875 -400 
L 2375 -400 
L 2375 100 
L 1100 100 
L 1100 -450 
L 600 -450 
Q 625 350 625 550 
L 625 2850 
Q 625 3525 600 3950 
L 1325 3950 
Q 1450 4525 1525 5150 
Q 1875 5025 2100 4975 
z
M 5825 3075 
Q 5800 1550 5700 175 
Q 5650 -275 5225 -425 
Q 4800 -575 4275 -625 
Q 4250 -350 4050 -50 
Q 4550 -75 4837 -25 
Q 5125 25 5200 200 
Q 5275 375 5312 1225 
Q 5350 2075 5375 3600 
L 3925 3600 
Q 3725 3125 3350 2475 
Q 3175 2650 2925 2750 
Q 3150 3050 3350 3475 
Q 3550 3900 3700 4400 
Q 3850 4900 3875 5175 
Q 4225 5025 4475 4950 
Q 4350 4750 4262 4512 
Q 4175 4275 4075 4050 
L 5850 4050 
Q 5825 3525 5825 3075 
z
M 2375 525 
L 2375 1850 
L 1100 1850 
L 1100 525 
L 2375 525 
z
M 2375 2275 
L 2375 3525 
L 1100 3525 
L 1100 2275 
L 2375 2275 
z
M 4350 2050 
Q 4500 1750 4700 1275 
Q 4525 1200 4225 1025 
Q 4050 1500 3900 1837 
Q 3750 2175 3600 2400 
Q 3775 2500 4050 2650 
L 4350 2050 
z
" id="SimHei-7684" transform="scale(0.015625)"/>
      <path d="M 5200 4800 
Q 5575 4800 5950 4825 
L 5950 4400 
Q 5575 4425 5200 4425 
L 4500 4425 
Q 4425 4050 4350 3600 
L 5725 3600 
Q 5700 3225 5700 2800 
L 5700 1725 
Q 5700 1300 5725 850 
L 5250 850 
L 5250 3225 
L 3550 3225 
L 3550 800 
L 3075 800 
Q 3100 1375 3100 1725 
L 3100 2775 
Q 3100 3175 3075 3600 
L 3900 3600 
Q 4000 4150 4000 4425 
L 3725 4425 
Q 3300 4425 2850 4400 
L 2850 4825 
Q 3325 4800 3725 4800 
L 5200 4800 
z
M 2600 1775 
Q 2350 1825 2150 1825 
Q 2250 2250 2300 2450 
L 1750 2450 
L 1750 125 
Q 1725 -300 1425 -400 
Q 1125 -500 750 -500 
Q 700 -225 575 25 
Q 1125 -25 1212 37 
Q 1300 100 1300 350 
L 1300 2450 
L 1025 2450 
Q 700 2450 350 2425 
L 350 2850 
Q 700 2825 1000 2825 
L 2850 2825 
Q 2725 2325 2600 1775 
z
M 4725 2875 
Q 4625 2575 4600 2100 
Q 4575 1625 4462 1037 
Q 4350 450 3962 62 
Q 3575 -325 2925 -675 
Q 2700 -500 2475 -350 
Q 3075 -125 3437 200 
Q 3800 525 3950 937 
Q 4100 1350 4137 1850 
Q 4175 2350 4175 2925 
L 4725 2875 
z
M 1625 2900 
Q 1275 3275 800 3650 
Q 925 3775 1075 3950 
Q 1250 3825 1425 3675 
Q 1750 4150 1950 4375 
L 1400 4375 
Q 900 4375 450 4350 
L 450 4775 
Q 900 4750 1375 4750 
L 2575 4750 
L 2575 4375 
Q 2200 4100 1725 3400 
L 1950 3200 
Q 1750 3025 1625 2900 
z
M 4775 725 
Q 5725 0 6075 -325 
Q 5850 -500 5725 -650 
Q 5400 -325 5137 -87 
Q 4875 150 4525 350 
Q 4650 525 4775 725 
z
" id="SimHei-9884" transform="scale(0.015625)"/>
      <path d="M 4025 4725 
Q 4000 4475 4000 4000 
L 4000 2225 
Q 4000 1775 4025 1350 
L 3550 1350 
L 3550 4325 
L 2350 4325 
L 2350 1325 
L 1900 1325 
Q 1925 1775 1925 2225 
L 1925 4000 
Q 1925 4200 1900 4725 
L 4025 4725 
z
M 5900 5075 
Q 5875 4800 5875 4375 
L 5875 0 
Q 5875 -325 5650 -425 
Q 5425 -525 4975 -600 
Q 4925 -325 4775 -50 
Q 5125 -50 5262 -25 
Q 5400 0 5400 250 
L 5400 4375 
Q 5400 4775 5375 5075 
L 5900 5075 
z
M 3275 3725 
Q 3225 3400 3200 2325 
Q 3175 1250 2837 550 
Q 2500 -150 2075 -600 
Q 1850 -400 1600 -325 
Q 2200 250 2475 962 
Q 2750 1675 2762 2475 
Q 2775 3275 2725 3800 
Q 3000 3750 3275 3725 
z
M 4950 4275 
Q 4925 4000 4925 3575 
L 4925 1825 
Q 4925 1300 4950 850 
L 4450 850 
Q 4475 1150 4475 1825 
L 4475 3575 
Q 4475 4000 4450 4275 
L 4950 4275 
z
M 1700 1675 
Q 1375 1075 1112 487 
Q 850 -100 725 -400 
Q 500 -200 200 -25 
Q 475 300 762 850 
Q 1050 1400 1250 2000 
Q 1475 1825 1700 1675 
z
M 3400 1050 
Q 3800 650 4300 -125 
Q 4100 -225 3875 -450 
Q 3475 275 3025 750 
Q 3225 875 3400 1050 
z
M 600 3525 
Q 1125 3125 1500 2775 
Q 1300 2575 1150 2375 
Q 825 2775 300 3150 
Q 450 3300 600 3525 
z
M 1350 4000 
Q 950 4375 475 4675 
Q 625 4850 775 5050 
Q 1300 4700 1675 4375 
Q 1500 4250 1350 4000 
z
" id="SimHei-6d4b" transform="scale(0.015625)"/>
      <path d="M 3325 5200 
Q 3300 4925 3300 4375 
L 4900 4375 
Q 5275 4375 5725 4400 
L 5725 3925 
Q 5300 3950 4900 3950 
L 3300 3950 
L 3300 3225 
L 5225 3225 
Q 5200 2700 5200 2150 
Q 5200 1625 5225 1175 
L 1175 1175 
Q 1200 1625 1200 2175 
Q 1200 2725 1175 3225 
L 2775 3225 
L 2775 4500 
Q 2775 4900 2750 5200 
L 3325 5200 
z
M 4700 1600 
L 4700 2800 
L 1725 2800 
L 1725 1600 
L 4700 1600 
z
M 1500 750 
Q 1025 -250 825 -625 
Q 625 -475 325 -375 
Q 650 50 950 925 
Q 1200 800 1500 750 
z
M 5325 850 
Q 5775 150 6075 -350 
Q 5925 -425 5575 -625 
Q 5375 -150 4900 575 
Q 5150 700 5325 850 
z
M 3975 -575 
Q 3775 -100 3400 575 
Q 3575 675 3825 825 
Q 4350 -75 4450 -325 
Q 4200 -450 3975 -575 
z
M 2375 -575 
Q 2350 -300 1975 550 
Q 2200 625 2425 775 
Q 2800 -75 2900 -350 
Q 2625 -450 2375 -575 
z
" id="SimHei-70b9" transform="scale(0.015625)"/>
      <path d="M 2125 4925 
Q 1950 4750 1625 3750 
L 1625 575 
Q 1625 -225 1650 -650 
L 1100 -650 
Q 1150 -200 1150 550 
L 1150 2950 
Q 775 2275 550 1950 
Q 375 2275 200 2425 
Q 525 2775 912 3575 
Q 1300 4375 1500 5200 
Q 1825 5000 2125 4925 
z
M 5375 3025 
Q 5275 2875 5100 2250 
Q 4925 1625 4600 300 
L 5450 300 
Q 5925 300 6100 325 
L 6100 -175 
Q 5875 -150 5450 -150 
L 2900 -150 
Q 2275 -150 2050 -175 
L 2050 325 
Q 2275 300 2850 300 
L 4075 300 
Q 4400 1400 4700 3175 
Q 5100 3075 5375 3025 
z
M 5250 4025 
Q 5700 4025 5925 4050 
L 5925 3575 
Q 5700 3600 5225 3600 
L 3000 3600 
Q 2650 3600 2275 3575 
L 2275 4050 
Q 2675 4025 3000 4025 
L 5250 4025 
z
M 3050 3050 
Q 3500 1775 3750 725 
Q 3450 625 3250 550 
Q 3125 1125 2962 1675 
Q 2800 2225 2550 2875 
Q 2800 2925 3050 3050 
z
M 3875 5200 
Q 4175 4675 4400 4300 
Q 4200 4250 3875 4075 
Q 3700 4525 3400 4950 
Q 3650 5050 3875 5200 
z
" id="SimHei-4f4d" transform="scale(0.015625)"/>
      <path d="M 3600 3650 
Q 3525 3475 3475 3325 
L 4750 3325 
Q 5100 3325 5675 3350 
L 5675 2925 
Q 5125 2950 4750 2950 
L 3400 2950 
L 3350 2600 
L 5000 2600 
Q 4975 1975 4975 1550 
L 4975 -50 
Q 5575 -50 6025 -25 
L 6025 -400 
Q 5475 -375 5000 -375 
L 1400 -375 
Q 900 -375 400 -400 
L 400 -25 
Q 925 -50 1450 -50 
L 1450 1550 
Q 1450 1975 1425 2600 
L 2875 2600 
L 2925 2950 
L 1600 2950 
Q 1150 2950 650 2925 
L 650 3350 
Q 1150 3325 1600 3325 
L 2975 3325 
Q 3000 3525 3000 3700 
Q 3250 3650 3600 3650 
z
M 5575 4950 
Q 5550 4600 5550 4300 
Q 5550 4000 5575 3775 
L 900 3775 
Q 925 4075 925 4325 
Q 925 4600 900 4950 
L 5575 4950 
z
M 4575 1900 
L 4575 2250 
L 1850 2250 
L 1850 1900 
L 4575 1900 
z
M 4575 1250 
L 4575 1575 
L 1850 1575 
L 1850 1250 
L 4575 1250 
z
M 4575 -50 
L 4575 275 
L 1850 275 
L 1850 -50 
L 4575 -50 
z
M 4575 625 
L 4575 875 
L 1850 875 
L 1850 625 
L 4575 625 
z
M 3700 4100 
L 3700 4625 
L 2700 4625 
L 2700 4100 
L 3700 4100 
z
M 5075 4100 
L 5075 4625 
L 4100 4625 
L 4100 4100 
L 5075 4100 
z
M 2350 4100 
L 2350 4625 
L 1400 4625 
L 1400 4100 
L 2350 4100 
z
" id="SimHei-7f6e" transform="scale(0.015625)"/>
      <path d="M 2950 4475 
Q 2950 4800 2925 5200 
L 3500 5200 
Q 3450 4900 3450 4475 
L 4975 4475 
Q 5325 4475 5725 4500 
L 5725 4025 
Q 5325 4075 5000 4075 
L 3450 4075 
L 3450 3600 
L 4675 3600 
Q 5075 3600 5450 3625 
L 5450 3175 
Q 5100 3200 4675 3200 
L 3450 3200 
L 3450 2650 
L 5225 2650 
Q 5675 2650 6075 2675 
L 6075 2200 
Q 5700 2250 5250 2250 
L 3075 2250 
Q 2900 2025 2525 1625 
L 2525 175 
Q 2975 425 3525 800 
Q 3575 500 3700 275 
Q 3225 50 2837 -200 
Q 2450 -450 2250 -625 
Q 2050 -375 1900 -175 
Q 2075 -50 2050 400 
L 2050 1200 
Q 1750 950 1425 737 
Q 1100 525 750 325 
Q 600 550 375 750 
Q 975 1000 1562 1425 
Q 2150 1850 2450 2250 
L 1275 2250 
Q 800 2250 350 2200 
L 350 2675 
Q 650 2650 1350 2650 
L 2950 2650 
L 2950 3200 
L 1825 3200 
Q 1400 3200 1125 3175 
L 1125 3625 
Q 1525 3600 1825 3600 
L 2950 3600 
L 2950 4075 
L 1700 4075 
Q 1225 4075 825 4025 
L 825 4525 
Q 1200 4475 1825 4475 
L 2950 4475 
z
M 3550 2125 
Q 3725 1600 4150 1050 
Q 4650 1450 5050 2000 
Q 5275 1775 5575 1575 
Q 5350 1500 5075 1262 
Q 4800 1025 4475 725 
Q 4725 475 5225 337 
Q 5725 200 6150 175 
Q 5925 -100 5875 -425 
Q 4600 -125 4012 500 
Q 3425 1125 3150 1950 
L 3550 2125 
z
" id="SimHei-8868" transform="scale(0.015625)"/>
     </defs>
     <use xlink:href="#SimHei-47"/>
     <use x="50" xlink:href="#SimHei-503c"/>
     <use x="150" xlink:href="#SimHei-66f4"/>
     <use x="250" xlink:href="#SimHei-65b0"/>
     <use x="350" xlink:href="#SimHei-65f6"/>
     <use x="450" xlink:href="#SimHei-5019"/>
     <use x="550" xlink:href="#SimHei-7684"/>
     <use x="650" xlink:href="#SimHei-9884"/>
     <use x="750" xlink:href="#SimHei-6d4b"/>
     <use x="850" xlink:href="#SimHei-70b9"/>
     <use x="950" xlink:href="#SimHei-4f4d"/>
     <use x="1050" xlink:href="#SimHei-7f6e"/>
     <use x="1150" xlink:href="#SimHei-8868"/>
    </g>
   </g>
  </g>
 </g>
 <defs>
  <clipPath id="p21de14b48b">
   <rect height="266.112" width="357.12" x="57.6" y="41.472"/>
  </clipPath>
 </defs>
</svg>
