<?xml version="1.0" encoding="utf-8" standalone="no"?>
<!DOCTYPE svg PUBLIC "-//W3C//DTD SVG 1.1//EN"
  "http://www.w3.org/Graphics/SVG/1.1/DTD/svg11.dtd">
<svg height="345.6pt" version="1.1" viewBox="0 0 460.8 345.6" width="460.8pt" xmlns="http://www.w3.org/2000/svg" xmlns:xlink="http://www.w3.org/1999/xlink">
 <metadata>
  <rdf:RDF xmlns:cc="http://creativecommons.org/ns#" xmlns:dc="http://purl.org/dc/elements/1.1/" xmlns:rdf="http://www.w3.org/1999/02/22-rdf-syntax-ns#">
   <cc:Work>
    <dc:type rdf:resource="http://purl.org/dc/dcmitype/StillImage"/>
    <dc:date>2022-09-17T23:03:55.026180</dc:date>
    <dc:format>image/svg+xml</dc:format>
    <dc:creator>
     <cc:Agent>
      <dc:title>Matplotlib v3.4.2, https://matplotlib.org/</dc:title>
     </cc:Agent>
    </dc:creator>
   </cc:Work>
  </rdf:RDF>
 </metadata>
 <defs>
  <style type="text/css">*{stroke-linecap:butt;stroke-linejoin:round;}</style>
 </defs>
 <g id="figure_1">
  <g id="patch_1">
   <path d="M 0 345.6 
L 460.8 345.6 
L 460.8 0 
L 0 0 
z
" style="fill:#ffffff;"/>
  </g>
  <g id="axes_1">
   <g id="patch_2">
    <path d="M 57.6 307.584 
L 414.72 307.584 
L 414.72 41.472 
L 57.6 41.472 
z
" style="fill:#ffffff;"/>
   </g>
   <g id="PathCollection_1">
    <defs>
     <path d="M 0 0.5 
C 0.132602 0.5 0.25979 0.447317 0.353553 0.353553 
C 0.447317 0.25979 0.5 0.132602 0.5 0 
C 0.5 -0.132602 0.447317 -0.25979 0.353553 -0.353553 
C 0.25979 -0.447317 0.132602 -0.5 0 -0.5 
C -0.132602 -0.5 -0.25979 -0.447317 -0.353553 -0.353553 
C -0.447317 -0.25979 -0.5 -0.132602 -0.5 0 
C -0.5 0.132602 -0.447317 0.25979 -0.353553 0.353553 
C -0.25979 0.447317 -0.132602 0.5 0 0.5 
z
" id="m0f252359e7" style="stroke:#ff0000;"/>
    </defs>
    <g clip-path="url(#p30fe231d5c)">
     <use style="fill:#ff0000;stroke:#ff0000;" x="73.832727" xlink:href="#m0f252359e7" y="53.568"/>
    </g>
   </g>
   <g id="PathCollection_2">
    <g clip-path="url(#p30fe231d5c)">
     <use style="fill:#ff0000;stroke:#ff0000;" x="73.836781" xlink:href="#m0f252359e7" y="63.599067"/>
    </g>
   </g>
   <g id="PathCollection_3">
    <g clip-path="url(#p30fe231d5c)">
     <use style="fill:#ff0000;stroke:#ff0000;" x="73.840836" xlink:href="#m0f252359e7" y="73.90389"/>
    </g>
   </g>
   <g id="PathCollection_4">
    <g clip-path="url(#p30fe231d5c)">
     <use style="fill:#ff0000;stroke:#ff0000;" x="73.84489" xlink:href="#m0f252359e7" y="84.456404"/>
    </g>
   </g>
   <g id="PathCollection_5">
    <g clip-path="url(#p30fe231d5c)">
     <use style="fill:#ff0000;stroke:#ff0000;" x="73.848944" xlink:href="#m0f252359e7" y="95.227118"/>
    </g>
   </g>
   <g id="PathCollection_6">
    <g clip-path="url(#p30fe231d5c)">
     <use style="fill:#ff0000;stroke:#ff0000;" x="73.852998" xlink:href="#m0f252359e7" y="106.183306"/>
    </g>
   </g>
   <g id="PathCollection_7">
    <g clip-path="url(#p30fe231d5c)">
     <use style="fill:#ff0000;stroke:#ff0000;" x="73.857052" xlink:href="#m0f252359e7" y="117.28928"/>
    </g>
   </g>
   <g id="PathCollection_8">
    <g clip-path="url(#p30fe231d5c)">
     <use style="fill:#ff0000;stroke:#ff0000;" x="73.861107" xlink:href="#m0f252359e7" y="128.506755"/>
    </g>
   </g>
   <g id="PathCollection_9">
    <g clip-path="url(#p30fe231d5c)">
     <use style="fill:#ff0000;stroke:#ff0000;" x="73.865161" xlink:href="#m0f252359e7" y="139.795292"/>
    </g>
   </g>
   <g id="PathCollection_10">
    <g clip-path="url(#p30fe231d5c)">
     <use style="fill:#ff0000;stroke:#ff0000;" x="73.869215" xlink:href="#m0f252359e7" y="145.638229"/>
    </g>
   </g>
   <g id="PathCollection_11">
    <g clip-path="url(#p30fe231d5c)">
     <use style="fill:#ff0000;stroke:#ff0000;" x="94.472549" xlink:href="#m0f252359e7" y="148.741533"/>
    </g>
   </g>
   <g id="PathCollection_12">
    <g clip-path="url(#p30fe231d5c)">
     <use style="fill:#ff0000;stroke:#ff0000;" x="98.530782" xlink:href="#m0f252359e7" y="150.317641"/>
    </g>
   </g>
   <g id="PathCollection_13">
    <g clip-path="url(#p30fe231d5c)">
     <use style="fill:#ff0000;stroke:#ff0000;" x="102.589014" xlink:href="#m0f252359e7" y="152.085474"/>
    </g>
   </g>
   <g id="PathCollection_14">
    <g clip-path="url(#p30fe231d5c)">
     <use style="fill:#ff0000;stroke:#ff0000;" x="102.593068" xlink:href="#m0f252359e7" y="156.142944"/>
    </g>
   </g>
   <g id="PathCollection_15">
    <g clip-path="url(#p30fe231d5c)">
     <use style="fill:#ff0000;stroke:#ff0000;" x="106.651301" xlink:href="#m0f252359e7" y="158.133885"/>
    </g>
   </g>
   <g id="PathCollection_16">
    <g clip-path="url(#p30fe231d5c)">
     <use style="fill:#ff0000;stroke:#ff0000;" x="110.709533" xlink:href="#m0f252359e7" y="160.297203"/>
    </g>
   </g>
   <g id="PathCollection_17">
    <g clip-path="url(#p30fe231d5c)">
     <use style="fill:#ff0000;stroke:#ff0000;" x="114.767766" xlink:href="#m0f252359e7" y="162.62617"/>
    </g>
   </g>
   <g id="PathCollection_18">
    <g clip-path="url(#p30fe231d5c)">
     <use style="fill:#ff0000;stroke:#ff0000;" x="118.825998" xlink:href="#m0f252359e7" y="165.11379"/>
    </g>
   </g>
   <g id="PathCollection_19">
    <g clip-path="url(#p30fe231d5c)">
     <use style="fill:#ff0000;stroke:#ff0000;" x="122.884231" xlink:href="#m0f252359e7" y="167.752835"/>
    </g>
   </g>
   <g id="PathCollection_20">
    <g clip-path="url(#p30fe231d5c)">
     <use style="fill:#ff0000;stroke:#ff0000;" x="126.942463" xlink:href="#m0f252359e7" y="170.535888"/>
    </g>
   </g>
   <g id="PathCollection_21">
    <g clip-path="url(#p30fe231d5c)">
     <use style="fill:#ff0000;stroke:#ff0000;" x="131.000696" xlink:href="#m0f252359e7" y="173.455373"/>
    </g>
   </g>
   <g id="PathCollection_22">
    <g clip-path="url(#p30fe231d5c)">
     <use style="fill:#ff0000;stroke:#ff0000;" x="135.058928" xlink:href="#m0f252359e7" y="175.344629"/>
    </g>
   </g>
   <g id="PathCollection_23">
    <g clip-path="url(#p30fe231d5c)">
     <use style="fill:#ff0000;stroke:#ff0000;" x="139.113107" xlink:href="#m0f252359e7" y="175.510116"/>
    </g>
   </g>
   <g id="PathCollection_24">
    <g clip-path="url(#p30fe231d5c)">
     <use style="fill:#ff0000;stroke:#ff0000;" x="143.171339" xlink:href="#m0f252359e7" y="178.810503"/>
    </g>
   </g>
   <g id="PathCollection_25">
    <g clip-path="url(#p30fe231d5c)">
     <use style="fill:#ff0000;stroke:#ff0000;" x="147.229572" xlink:href="#m0f252359e7" y="182.221364"/>
    </g>
   </g>
   <g id="PathCollection_26">
    <g clip-path="url(#p30fe231d5c)">
     <use style="fill:#ff0000;stroke:#ff0000;" x="155.341982" xlink:href="#m0f252359e7" y="185.203807"/>
    </g>
   </g>
   <g id="PathCollection_27">
    <g clip-path="url(#p30fe231d5c)">
     <use style="fill:#ff0000;stroke:#ff0000;" x="163.454393" xlink:href="#m0f252359e7" y="188.607116"/>
    </g>
   </g>
   <g id="PathCollection_28">
    <g clip-path="url(#p30fe231d5c)">
     <use style="fill:#ff0000;stroke:#ff0000;" x="171.566804" xlink:href="#m0f252359e7" y="192.415602"/>
    </g>
   </g>
   <g id="PathCollection_29">
    <g clip-path="url(#p30fe231d5c)">
     <use style="fill:#ff0000;stroke:#ff0000;" x="179.675161" xlink:href="#m0f252359e7" y="192.420964"/>
    </g>
   </g>
   <g id="PathCollection_30">
    <g clip-path="url(#p30fe231d5c)">
     <use style="fill:#ff0000;stroke:#ff0000;" x="179.679215" xlink:href="#m0f252359e7" y="194.544956"/>
    </g>
   </g>
   <g id="PathCollection_31">
    <g clip-path="url(#p30fe231d5c)">
     <use style="fill:#ff0000;stroke:#ff0000;" x="183.733393" xlink:href="#m0f252359e7" y="196.772201"/>
    </g>
   </g>
   <g id="PathCollection_32">
    <g clip-path="url(#p30fe231d5c)">
     <use style="fill:#ff0000;stroke:#ff0000;" x="187.787571" xlink:href="#m0f252359e7" y="197.021124"/>
    </g>
   </g>
   <g id="PathCollection_33">
    <g clip-path="url(#p30fe231d5c)">
     <use style="fill:#ff0000;stroke:#ff0000;" x="191.84175" xlink:href="#m0f252359e7" y="197.359501"/>
    </g>
   </g>
   <g id="PathCollection_34">
    <g clip-path="url(#p30fe231d5c)">
     <use style="fill:#ff0000;stroke:#ff0000;" x="191.845804" xlink:href="#m0f252359e7" y="198.715097"/>
    </g>
   </g>
   <g id="PathCollection_35">
    <g clip-path="url(#p30fe231d5c)">
     <use style="fill:#ff0000;stroke:#ff0000;" x="195.899982" xlink:href="#m0f252359e7" y="201.978894"/>
    </g>
   </g>
   <g id="PathCollection_36">
    <g clip-path="url(#p30fe231d5c)">
     <use style="fill:#ff0000;stroke:#ff0000;" x="199.954161" xlink:href="#m0f252359e7" y="202.515984"/>
    </g>
   </g>
   <g id="PathCollection_37">
    <g clip-path="url(#p30fe231d5c)">
     <use style="fill:#ff0000;stroke:#ff0000;" x="204.008339" xlink:href="#m0f252359e7" y="203.144311"/>
    </g>
   </g>
   <g id="PathCollection_38">
    <g clip-path="url(#p30fe231d5c)">
     <use style="fill:#ff0000;stroke:#ff0000;" x="208.062517" xlink:href="#m0f252359e7" y="203.865114"/>
    </g>
   </g>
   <g id="PathCollection_39">
    <g clip-path="url(#p30fe231d5c)">
     <use style="fill:#ff0000;stroke:#ff0000;" x="212.116695" xlink:href="#m0f252359e7" y="204.679535"/>
    </g>
   </g>
   <g id="PathCollection_40">
    <g clip-path="url(#p30fe231d5c)">
     <use style="fill:#ff0000;stroke:#ff0000;" x="212.12075" xlink:href="#m0f252359e7" y="206.847934"/>
    </g>
   </g>
   <g id="PathCollection_41">
    <g clip-path="url(#p30fe231d5c)">
     <use style="fill:#ff0000;stroke:#ff0000;" x="216.174928" xlink:href="#m0f252359e7" y="209.730389"/>
    </g>
   </g>
   <g id="PathCollection_42">
    <g clip-path="url(#p30fe231d5c)">
     <use style="fill:#ff0000;stroke:#ff0000;" x="220.229106" xlink:href="#m0f252359e7" y="210.734837"/>
    </g>
   </g>
   <g id="PathCollection_43">
    <g clip-path="url(#p30fe231d5c)">
     <use style="fill:#ff0000;stroke:#ff0000;" x="224.283285" xlink:href="#m0f252359e7" y="211.83267"/>
    </g>
   </g>
   <g id="PathCollection_44">
    <g clip-path="url(#p30fe231d5c)">
     <use style="fill:#ff0000;stroke:#ff0000;" x="228.337463" xlink:href="#m0f252359e7" y="213.024525"/>
    </g>
   </g>
   <g id="PathCollection_45">
    <g clip-path="url(#p30fe231d5c)">
     <use style="fill:#ff0000;stroke:#ff0000;" x="232.391641" xlink:href="#m0f252359e7" y="214.31092"/>
    </g>
   </g>
   <g id="PathCollection_46">
    <g clip-path="url(#p30fe231d5c)">
     <use style="fill:#ff0000;stroke:#ff0000;" x="236.44582" xlink:href="#m0f252359e7" y="215.692249"/>
    </g>
   </g>
   <g id="PathCollection_47">
    <g clip-path="url(#p30fe231d5c)">
     <use style="fill:#ff0000;stroke:#ff0000;" x="240.499998" xlink:href="#m0f252359e7" y="217.168778"/>
    </g>
   </g>
   <g id="PathCollection_48">
    <g clip-path="url(#p30fe231d5c)">
     <use style="fill:#ff0000;stroke:#ff0000;" x="244.554176" xlink:href="#m0f252359e7" y="218.740639"/>
    </g>
   </g>
   <g id="PathCollection_49">
    <g clip-path="url(#p30fe231d5c)">
     <use style="fill:#ff0000;stroke:#ff0000;" x="248.608355" xlink:href="#m0f252359e7" y="220.407831"/>
    </g>
   </g>
   <g id="PathCollection_50">
    <g clip-path="url(#p30fe231d5c)">
     <use style="fill:#ff0000;stroke:#ff0000;" x="252.662533" xlink:href="#m0f252359e7" y="222.170209"/>
    </g>
   </g>
   <g id="PathCollection_51">
    <g clip-path="url(#p30fe231d5c)">
     <use style="fill:#ff0000;stroke:#ff0000;" x="256.716711" xlink:href="#m0f252359e7" y="224.02749"/>
    </g>
   </g>
   <g id="PathCollection_52">
    <g clip-path="url(#p30fe231d5c)">
     <use style="fill:#ff0000;stroke:#ff0000;" x="260.770889" xlink:href="#m0f252359e7" y="224.248517"/>
    </g>
   </g>
   <g id="PathCollection_53">
    <g clip-path="url(#p30fe231d5c)">
     <use style="fill:#ff0000;stroke:#ff0000;" x="264.825068" xlink:href="#m0f252359e7" y="224.289585"/>
    </g>
   </g>
   <g id="PathCollection_54">
    <g clip-path="url(#p30fe231d5c)">
     <use style="fill:#ff0000;stroke:#ff0000;" x="268.875192" xlink:href="#m0f252359e7" y="226.274678"/>
    </g>
   </g>
   <g id="PathCollection_55">
    <g clip-path="url(#p30fe231d5c)">
     <use style="fill:#ff0000;stroke:#ff0000;" x="272.92937" xlink:href="#m0f252359e7" y="228.548489"/>
    </g>
   </g>
   <g id="PathCollection_56">
    <g clip-path="url(#p30fe231d5c)">
     <use style="fill:#ff0000;stroke:#ff0000;" x="276.983549" xlink:href="#m0f252359e7" y="230.91688"/>
    </g>
   </g>
   <g id="PathCollection_57">
    <g clip-path="url(#p30fe231d5c)">
     <use style="fill:#ff0000;stroke:#ff0000;" x="281.037727" xlink:href="#m0f252359e7" y="231.170502"/>
    </g>
   </g>
   <g id="PathCollection_58">
    <g clip-path="url(#p30fe231d5c)">
     <use style="fill:#ff0000;stroke:#ff0000;" x="285.087851" xlink:href="#m0f252359e7" y="232.143698"/>
    </g>
   </g>
   <g id="PathCollection_59">
    <g clip-path="url(#p30fe231d5c)">
     <use style="fill:#ff0000;stroke:#ff0000;" x="289.142029" xlink:href="#m0f252359e7" y="234.845421"/>
    </g>
   </g>
   <g id="PathCollection_60">
    <g clip-path="url(#p30fe231d5c)">
     <use style="fill:#ff0000;stroke:#ff0000;" x="293.196208" xlink:href="#m0f252359e7" y="236.134425"/>
    </g>
   </g>
   <g id="PathCollection_61">
    <g clip-path="url(#p30fe231d5c)">
     <use style="fill:#ff0000;stroke:#ff0000;" x="297.246332" xlink:href="#m0f252359e7" y="236.828841"/>
    </g>
   </g>
   <g id="PathCollection_62">
    <g clip-path="url(#p30fe231d5c)">
     <use style="fill:#ff0000;stroke:#ff0000;" x="301.30051" xlink:href="#m0f252359e7" y="239.870273"/>
    </g>
   </g>
   <g id="PathCollection_63">
    <g clip-path="url(#p30fe231d5c)">
     <use style="fill:#ff0000;stroke:#ff0000;" x="309.404813" xlink:href="#m0f252359e7" y="242.657568"/>
    </g>
   </g>
   <g id="PathCollection_64">
    <g clip-path="url(#p30fe231d5c)">
     <use style="fill:#ff0000;stroke:#ff0000;" x="313.458991" xlink:href="#m0f252359e7" y="242.779188"/>
    </g>
   </g>
   <g id="PathCollection_65">
    <g clip-path="url(#p30fe231d5c)">
     <use style="fill:#ff0000;stroke:#ff0000;" x="317.509115" xlink:href="#m0f252359e7" y="246.03173"/>
    </g>
   </g>
   <g id="PathCollection_66">
    <g clip-path="url(#p30fe231d5c)">
     <use style="fill:#ff0000;stroke:#ff0000;" x="321.559239" xlink:href="#m0f252359e7" y="246.205499"/>
    </g>
   </g>
   <g id="PathCollection_67">
    <g clip-path="url(#p30fe231d5c)">
     <use style="fill:#ff0000;stroke:#ff0000;" x="325.609363" xlink:href="#m0f252359e7" y="246.574509"/>
    </g>
   </g>
   <g id="PathCollection_68">
    <g clip-path="url(#p30fe231d5c)">
     <use style="fill:#ff0000;stroke:#ff0000;" x="325.613417" xlink:href="#m0f252359e7" y="250.021419"/>
    </g>
   </g>
   <g id="PathCollection_69">
    <g clip-path="url(#p30fe231d5c)">
     <use style="fill:#ff0000;stroke:#ff0000;" x="329.663542" xlink:href="#m0f252359e7" y="250.574209"/>
    </g>
   </g>
   <g id="PathCollection_70">
    <g clip-path="url(#p30fe231d5c)">
     <use style="fill:#ff0000;stroke:#ff0000;" x="333.713666" xlink:href="#m0f252359e7" y="251.342026"/>
    </g>
   </g>
   <g id="PathCollection_71">
    <g clip-path="url(#p30fe231d5c)">
     <use style="fill:#ff0000;stroke:#ff0000;" x="337.76379" xlink:href="#m0f252359e7" y="252.339231"/>
    </g>
   </g>
   <g id="PathCollection_72">
    <g clip-path="url(#p30fe231d5c)">
     <use style="fill:#ff0000;stroke:#ff0000;" x="337.767844" xlink:href="#m0f252359e7" y="255.009334"/>
    </g>
   </g>
   <g id="PathCollection_73">
    <g clip-path="url(#p30fe231d5c)">
     <use style="fill:#ff0000;stroke:#ff0000;" x="341.817968" xlink:href="#m0f252359e7" y="256.799215"/>
    </g>
   </g>
   <g id="PathCollection_74">
    <g clip-path="url(#p30fe231d5c)">
     <use style="fill:#ff0000;stroke:#ff0000;" x="345.868092" xlink:href="#m0f252359e7" y="258.239256"/>
    </g>
   </g>
   <g id="PathCollection_75">
    <g clip-path="url(#p30fe231d5c)">
     <use style="fill:#ff0000;stroke:#ff0000;" x="349.918216" xlink:href="#m0f252359e7" y="259.943801"/>
    </g>
   </g>
   <g id="PathCollection_76">
    <g clip-path="url(#p30fe231d5c)">
     <use style="fill:#ff0000;stroke:#ff0000;" x="353.968341" xlink:href="#m0f252359e7" y="261.928404"/>
    </g>
   </g>
   <g id="PathCollection_77">
    <g clip-path="url(#p30fe231d5c)">
     <use style="fill:#ff0000;stroke:#ff0000;" x="358.018465" xlink:href="#m0f252359e7" y="264.208969"/>
    </g>
   </g>
   <g id="PathCollection_78">
    <g clip-path="url(#p30fe231d5c)">
     <use style="fill:#ff0000;stroke:#ff0000;" x="362.068589" xlink:href="#m0f252359e7" y="266.801678"/>
    </g>
   </g>
   <g id="PathCollection_79">
    <g clip-path="url(#p30fe231d5c)">
     <use style="fill:#ff0000;stroke:#ff0000;" x="366.114659" xlink:href="#m0f252359e7" y="267.057231"/>
    </g>
   </g>
   <g id="PathCollection_80">
    <g clip-path="url(#p30fe231d5c)">
     <use style="fill:#ff0000;stroke:#ff0000;" x="366.118713" xlink:href="#m0f252359e7" y="269.722897"/>
    </g>
   </g>
   <g id="PathCollection_81">
    <g clip-path="url(#p30fe231d5c)">
     <use style="fill:#ff0000;stroke:#ff0000;" x="370.164783" xlink:href="#m0f252359e7" y="270.464895"/>
    </g>
   </g>
   <g id="PathCollection_82">
    <g clip-path="url(#p30fe231d5c)">
     <use style="fill:#ff0000;stroke:#ff0000;" x="370.168837" xlink:href="#m0f252359e7" y="272.989059"/>
    </g>
   </g>
   <g id="PathCollection_83">
    <g clip-path="url(#p30fe231d5c)">
     <use style="fill:#ff0000;stroke:#ff0000;" x="374.214907" xlink:href="#m0f252359e7" y="274.25031"/>
    </g>
   </g>
   <g id="PathCollection_84">
    <g clip-path="url(#p30fe231d5c)">
     <use style="fill:#ff0000;stroke:#ff0000;" x="378.260977" xlink:href="#m0f252359e7" y="276.223016"/>
    </g>
   </g>
   <g id="PathCollection_85">
    <g clip-path="url(#p30fe231d5c)">
     <use style="fill:#ff0000;stroke:#ff0000;" x="378.265031" xlink:href="#m0f252359e7" y="278.430454"/>
    </g>
   </g>
   <g id="PathCollection_86">
    <g clip-path="url(#p30fe231d5c)">
     <use style="fill:#ff0000;stroke:#ff0000;" x="382.307047" xlink:href="#m0f252359e7" y="279.012238"/>
    </g>
   </g>
   <g id="PathCollection_87">
    <g clip-path="url(#p30fe231d5c)">
     <use style="fill:#ff0000;stroke:#ff0000;" x="382.311101" xlink:href="#m0f252359e7" y="281.0187"/>
    </g>
   </g>
   <g id="PathCollection_88">
    <g clip-path="url(#p30fe231d5c)">
     <use style="fill:#ff0000;stroke:#ff0000;" x="386.353117" xlink:href="#m0f252359e7" y="282.736004"/>
    </g>
   </g>
   <g id="PathCollection_89">
    <g clip-path="url(#p30fe231d5c)">
     <use style="fill:#ff0000;stroke:#ff0000;" x="386.357171" xlink:href="#m0f252359e7" y="284.492154"/>
    </g>
   </g>
   <g id="PathCollection_90">
    <g clip-path="url(#p30fe231d5c)">
     <use style="fill:#ff0000;stroke:#ff0000;" x="390.399187" xlink:href="#m0f252359e7" y="287.526218"/>
    </g>
   </g>
   <g id="PathCollection_91">
    <g clip-path="url(#p30fe231d5c)">
     <use style="fill:#ff0000;stroke:#ff0000;" x="390.403241" xlink:href="#m0f252359e7" y="288.974629"/>
    </g>
   </g>
   <g id="PathCollection_92">
    <g clip-path="url(#p30fe231d5c)">
     <use style="fill:#ff0000;stroke:#ff0000;" x="394.445257" xlink:href="#m0f252359e7" y="293.529249"/>
    </g>
   </g>
   <g id="PathCollection_93">
    <g clip-path="url(#p30fe231d5c)">
     <use style="fill:#ff0000;stroke:#ff0000;" x="394.449311" xlink:href="#m0f252359e7" y="294.435952"/>
    </g>
   </g>
   <g id="PathCollection_94">
    <g clip-path="url(#p30fe231d5c)">
     <use style="fill:#ff0000;stroke:#ff0000;" x="398.487273" xlink:href="#m0f252359e7" y="295.488"/>
    </g>
   </g>
   <g id="matplotlib.axis_1">
    <g id="xtick_1">
     <g id="line2d_1">
      <defs>
       <path d="M 0 0 
L 0 3.5 
" id="m7e21375c48" style="stroke:#000000;stroke-width:0.8;"/>
      </defs>
      <g>
       <use style="stroke:#000000;stroke-width:0.8;" x="73.832727" xlink:href="#m7e21375c48" y="307.584"/>
      </g>
     </g>
     <g id="text_1">
      <!-- 0 -->
      <g transform="translate(71.332727 321.459)scale(0.1 -0.1)">
       <defs>
        <path d="M 225 2537 
Q 250 3200 412 3587 
Q 575 3975 875 4225 
Q 1175 4475 1612 4475 
Q 2050 4475 2375 4112 
Q 2700 3750 2800 3200 
Q 2900 2650 2862 1937 
Q 2825 1225 2612 775 
Q 2400 325 1975 150 
Q 1550 -25 1125 187 
Q 700 400 525 750 
Q 350 1100 275 1487 
Q 200 1875 225 2537 
z
M 750 2687 
Q 675 2000 800 1462 
Q 925 925 1212 700 
Q 1500 475 1800 612 
Q 2100 750 2237 1162 
Q 2375 1575 2375 2062 
Q 2375 2550 2337 2950 
Q 2300 3350 2112 3675 
Q 1925 4000 1612 4012 
Q 1300 4025 1062 3700 
Q 825 3375 750 2687 
z
" id="SimHei-30" transform="scale(0.015625)"/>
       </defs>
       <use xlink:href="#SimHei-30"/>
      </g>
     </g>
    </g>
    <g id="xtick_2">
     <g id="line2d_2">
      <g>
       <use style="stroke:#000000;stroke-width:0.8;" x="114.37451" xlink:href="#m7e21375c48" y="307.584"/>
      </g>
     </g>
     <g id="text_2">
      <!-- 10 -->
      <g transform="translate(109.37451 321.459)scale(0.1 -0.1)">
       <defs>
        <path d="M 1400 3600 
Q 1075 3275 575 2975 
L 575 3450 
Q 1200 3875 1600 4450 
L 1900 4450 
L 1900 150 
L 1400 150 
L 1400 3600 
z
" id="SimHei-31" transform="scale(0.015625)"/>
       </defs>
       <use xlink:href="#SimHei-31"/>
       <use x="50" xlink:href="#SimHei-30"/>
      </g>
     </g>
    </g>
    <g id="xtick_3">
     <g id="line2d_3">
      <g>
       <use style="stroke:#000000;stroke-width:0.8;" x="154.916294" xlink:href="#m7e21375c48" y="307.584"/>
      </g>
     </g>
     <g id="text_3">
      <!-- 20 -->
      <g transform="translate(149.916294 321.459)scale(0.1 -0.1)">
       <defs>
        <path d="M 300 250 
Q 325 625 650 925 
Q 975 1225 1475 1862 
Q 1975 2500 2125 2850 
Q 2275 3200 2237 3450 
Q 2200 3700 2000 3862 
Q 1800 4025 1537 4000 
Q 1275 3975 1037 3800 
Q 800 3625 675 3275 
L 200 3350 
Q 400 3925 712 4187 
Q 1025 4450 1450 4475 
Q 1700 4500 1900 4462 
Q 2100 4425 2312 4287 
Q 2525 4150 2662 3875 
Q 2800 3600 2762 3212 
Q 2725 2825 2375 2287 
Q 2025 1750 1025 600 
L 2825 600 
L 2825 150 
L 300 150 
L 300 250 
z
" id="SimHei-32" transform="scale(0.015625)"/>
       </defs>
       <use xlink:href="#SimHei-32"/>
       <use x="50" xlink:href="#SimHei-30"/>
      </g>
     </g>
    </g>
    <g id="xtick_4">
     <g id="line2d_4">
      <g>
       <use style="stroke:#000000;stroke-width:0.8;" x="195.458077" xlink:href="#m7e21375c48" y="307.584"/>
      </g>
     </g>
     <g id="text_4">
      <!-- 30 -->
      <g transform="translate(190.458077 321.459)scale(0.1 -0.1)">
       <defs>
        <path d="M 250 1225 
L 700 1300 
Q 800 975 1025 762 
Q 1250 550 1587 562 
Q 1925 575 2125 837 
Q 2325 1100 2300 1437 
Q 2275 1775 2037 1962 
Q 1800 2150 1275 2225 
L 1275 2550 
Q 1800 2600 2037 2825 
Q 2275 3050 2250 3412 
Q 2225 3775 1925 3937 
Q 1625 4100 1287 3975 
Q 950 3850 750 3275 
L 300 3350 
Q 450 3800 712 4100 
Q 975 4400 1425 4450 
Q 1875 4500 2212 4337 
Q 2550 4175 2687 3837 
Q 2825 3500 2725 3100 
Q 2625 2700 2150 2400 
Q 2500 2250 2687 1950 
Q 2875 1650 2812 1162 
Q 2750 675 2375 375 
Q 2000 75 1525 87 
Q 1050 100 700 387 
Q 350 675 250 1225 
z
" id="SimHei-33" transform="scale(0.015625)"/>
       </defs>
       <use xlink:href="#SimHei-33"/>
       <use x="50" xlink:href="#SimHei-30"/>
      </g>
     </g>
    </g>
    <g id="xtick_5">
     <g id="line2d_5">
      <g>
       <use style="stroke:#000000;stroke-width:0.8;" x="235.99986" xlink:href="#m7e21375c48" y="307.584"/>
      </g>
     </g>
     <g id="text_5">
      <!-- 40 -->
      <g transform="translate(230.99986 321.459)scale(0.1 -0.1)">
       <defs>
        <path d="M 2000 1100 
L 75 1100 
L 75 1525 
L 2100 4450 
L 2475 4450 
L 2475 1525 
L 3075 1525 
L 3075 1100 
L 2475 1100 
L 2475 150 
L 2000 150 
L 2000 1100 
z
M 2000 1525 
L 2000 3500 
L 600 1525 
L 2000 1525 
z
" id="SimHei-34" transform="scale(0.015625)"/>
       </defs>
       <use xlink:href="#SimHei-34"/>
       <use x="50" xlink:href="#SimHei-30"/>
      </g>
     </g>
    </g>
    <g id="xtick_6">
     <g id="line2d_6">
      <g>
       <use style="stroke:#000000;stroke-width:0.8;" x="276.541643" xlink:href="#m7e21375c48" y="307.584"/>
      </g>
     </g>
     <g id="text_6">
      <!-- 50 -->
      <g transform="translate(271.541643 321.459)scale(0.1 -0.1)">
       <defs>
        <path d="M 550 1325 
Q 725 650 1150 575 
Q 1575 500 1837 662 
Q 2100 825 2212 1087 
Q 2325 1350 2312 1675 
Q 2300 2000 2137 2225 
Q 1975 2450 1725 2525 
Q 1475 2600 1162 2525 
Q 850 2450 650 2175 
L 225 2225 
Q 275 2375 700 4375 
L 2675 4375 
L 2675 3925 
L 1075 3925 
Q 950 3250 825 2850 
Q 1200 3025 1525 3012 
Q 1850 3000 2150 2862 
Q 2450 2725 2587 2487 
Q 2725 2250 2787 2012 
Q 2850 1775 2837 1500 
Q 2825 1225 2725 937 
Q 2625 650 2425 462 
Q 2225 275 1937 162 
Q 1650 50 1275 75 
Q 900 100 562 350 
Q 225 600 100 1200 
L 550 1325 
z
" id="SimHei-35" transform="scale(0.015625)"/>
       </defs>
       <use xlink:href="#SimHei-35"/>
       <use x="50" xlink:href="#SimHei-30"/>
      </g>
     </g>
    </g>
    <g id="xtick_7">
     <g id="line2d_7">
      <g>
       <use style="stroke:#000000;stroke-width:0.8;" x="317.083426" xlink:href="#m7e21375c48" y="307.584"/>
      </g>
     </g>
     <g id="text_7">
      <!-- 60 -->
      <g transform="translate(312.083426 321.459)scale(0.1 -0.1)">
       <defs>
        <path d="M 250 1612 
Q 275 1975 387 2225 
Q 500 2475 725 2850 
L 1750 4450 
L 2325 4450 
L 1275 2800 
Q 1950 2975 2350 2750 
Q 2750 2525 2887 2237 
Q 3025 1950 3037 1612 
Q 3050 1275 2937 950 
Q 2825 625 2537 362 
Q 2250 100 1737 75 
Q 1225 50 862 262 
Q 500 475 362 862 
Q 225 1250 250 1612 
z
M 1025 787 
Q 1250 550 1625 525 
Q 2000 500 2250 775 
Q 2500 1050 2500 1575 
Q 2500 2100 2187 2300 
Q 1875 2500 1487 2450 
Q 1100 2400 925 2075 
Q 750 1750 775 1387 
Q 800 1025 1025 787 
z
" id="SimHei-36" transform="scale(0.015625)"/>
       </defs>
       <use xlink:href="#SimHei-36"/>
       <use x="50" xlink:href="#SimHei-30"/>
      </g>
     </g>
    </g>
    <g id="xtick_8">
     <g id="line2d_8">
      <g>
       <use style="stroke:#000000;stroke-width:0.8;" x="357.625209" xlink:href="#m7e21375c48" y="307.584"/>
      </g>
     </g>
     <g id="text_8">
      <!-- 70 -->
      <g transform="translate(352.625209 321.459)scale(0.1 -0.1)">
       <defs>
        <path d="M 850 150 
Q 1300 2050 2425 3925 
L 275 3925 
L 275 4375 
L 2950 4375 
L 2950 3950 
Q 1775 2050 1400 150 
L 850 150 
z
" id="SimHei-37" transform="scale(0.015625)"/>
       </defs>
       <use xlink:href="#SimHei-37"/>
       <use x="50" xlink:href="#SimHei-30"/>
      </g>
     </g>
    </g>
    <g id="xtick_9">
     <g id="line2d_9">
      <g>
       <use style="stroke:#000000;stroke-width:0.8;" x="398.166993" xlink:href="#m7e21375c48" y="307.584"/>
      </g>
     </g>
     <g id="text_9">
      <!-- 80 -->
      <g transform="translate(393.166993 321.459)scale(0.1 -0.1)">
       <defs>
        <path d="M 175 1375 
Q 175 1675 325 1962 
Q 475 2250 825 2425 
Q 525 2600 425 2812 
Q 325 3025 312 3300 
Q 300 3575 387 3775 
Q 475 3975 650 4150 
Q 825 4325 1037 4387 
Q 1250 4450 1500 4450 
Q 1750 4450 1950 4400 
Q 2150 4350 2375 4187 
Q 2600 4025 2700 3725 
Q 2800 3425 2687 3025 
Q 2575 2625 2100 2400 
Q 2525 2275 2700 2012 
Q 2875 1750 2875 1375 
Q 2875 1000 2762 775 
Q 2650 550 2512 400 
Q 2375 250 2137 162 
Q 1900 75 1537 75 
Q 1175 75 912 162 
Q 650 250 475 425 
Q 300 600 237 837 
Q 175 1075 175 1375 
z
M 687 1400 
Q 675 1100 787 875 
Q 900 650 1200 587 
Q 1500 525 1825 600 
Q 2150 675 2275 950 
Q 2400 1225 2362 1500 
Q 2325 1775 2050 1962 
Q 1775 2150 1450 2125 
Q 1125 2100 912 1900 
Q 700 1700 687 1400 
z
M 775 3350 
Q 775 3100 950 2875 
Q 1125 2650 1500 2650 
Q 1875 2650 2062 2875 
Q 2250 3100 2237 3412 
Q 2225 3725 2012 3875 
Q 1800 4025 1437 4000 
Q 1075 3975 925 3787 
Q 775 3600 775 3350 
z
" id="SimHei-38" transform="scale(0.015625)"/>
       </defs>
       <use xlink:href="#SimHei-38"/>
       <use x="50" xlink:href="#SimHei-30"/>
      </g>
     </g>
    </g>
    <g id="text_10">
     <!-- 第n次更新 -->
     <g transform="translate(213.66 334.794937)scale(0.1 -0.1)">
      <defs>
       <path d="M 4475 -350 
Q 4450 -125 4250 200 
Q 4900 175 5087 262 
Q 5275 350 5275 1000 
L 3475 1000 
L 3475 175 
Q 3475 -50 3500 -675 
L 2975 -675 
Q 3000 -25 3000 175 
L 3000 775 
Q 2625 400 2037 50 
Q 1450 -300 700 -600 
Q 600 -350 325 -150 
Q 900 -25 1600 312 
Q 2300 650 2625 1000 
L 875 1000 
Q 975 1750 1000 2450 
L 3000 2450 
L 3000 3100 
L 1975 3100 
Q 1525 3100 975 3075 
L 975 3525 
Q 1525 3500 1825 3500 
L 5400 3500 
Q 5375 3050 5375 2725 
Q 5375 2400 5400 2050 
L 3475 2050 
L 3475 1400 
L 5800 1400 
Q 5725 525 5662 225 
Q 5600 -75 5275 -187 
Q 4950 -300 4475 -350 
z
M 2050 5025 
Q 1775 4800 1650 4625 
L 2500 4625 
Q 3025 4625 3325 4650 
L 3325 4225 
L 2325 4225 
Q 2475 4000 2625 3725 
Q 2400 3650 2200 3550 
Q 2050 3900 1825 4225 
L 1425 4225 
Q 1150 3825 725 3350 
Q 500 3500 250 3600 
Q 700 3975 975 4375 
Q 1250 4775 1450 5275 
Q 1825 5075 2050 5025 
z
M 3600 3550 
Q 3350 3650 3125 3750 
Q 3375 3975 3600 4387 
Q 3825 4800 3950 5200 
Q 4225 5075 4525 4975 
Q 4400 4875 4275 4650 
L 5250 4650 
Q 5425 4650 6000 4675 
L 6000 4225 
Q 5625 4250 5000 4250 
Q 5175 4000 5350 3725 
Q 5075 3650 4900 3550 
Q 4725 3900 4475 4250 
L 4075 4250 
Q 3850 3850 3600 3550 
z
M 3000 1400 
L 3000 2050 
L 1475 2050 
Q 1425 1750 1400 1400 
L 3000 1400 
z
M 4900 2450 
L 4900 3100 
L 3475 3100 
L 3475 2450 
L 4900 2450 
z
" id="SimHei-7b2c" transform="scale(0.015625)"/>
       <path d="M 2800 125 
L 2300 125 
L 2300 1925 
Q 2300 2225 2150 2400 
Q 2000 2575 1750 2575 
Q 1425 2575 1137 2237 
Q 850 1900 850 1400 
L 850 125 
L 350 125 
L 350 2925 
L 850 2925 
L 850 2400 
Q 1050 2675 1287 2825 
Q 1525 2975 1900 2975 
Q 2350 2975 2575 2725 
Q 2800 2475 2800 2100 
L 2800 125 
z
" id="SimHei-6e" transform="scale(0.015625)"/>
       <path d="M 4150 3025 
Q 4000 2550 4050 2187 
Q 4100 1825 4275 1450 
Q 4450 1075 4800 750 
Q 5150 425 5475 212 
Q 5800 0 6150 -150 
Q 5875 -350 5750 -625 
Q 5250 -325 4887 -25 
Q 4525 275 4275 612 
Q 4025 950 3825 1425 
Q 3525 625 2950 125 
Q 2375 -375 1850 -650 
Q 1675 -400 1475 -225 
Q 2025 0 2487 362 
Q 2950 725 3162 1100 
Q 3375 1475 3450 1825 
Q 3525 2175 3537 2400 
Q 3550 2625 3525 3125 
Q 3825 3050 4150 3025 
z
M 3700 4975 
Q 3625 4900 3475 4575 
Q 3325 4250 3250 4075 
L 5775 4075 
Q 5650 3725 5550 3362 
Q 5450 3000 5275 2500 
Q 5000 2575 4775 2600 
Q 5025 3350 5100 3650 
L 3100 3650 
Q 2975 3400 2812 3100 
Q 2650 2800 2425 2450 
Q 2275 2600 1975 2700 
Q 2300 3050 2625 3762 
Q 2950 4475 3125 5200 
Q 3450 5025 3700 4975 
z
M 2025 2000 
Q 1825 1675 1475 1087 
Q 1125 500 725 -200 
Q 500 -25 250 175 
Q 725 725 1037 1262 
Q 1350 1800 1575 2325 
Q 1750 2175 2025 2000 
z
M 900 4750 
Q 1725 3725 1950 3375 
Q 1750 3250 1500 3050 
Q 1250 3525 500 4425 
Q 700 4575 900 4750 
z
" id="SimHei-6b21" transform="scale(0.015625)"/>
       <path d="M 5175 4750 
Q 5400 4750 5800 4775 
L 5800 4325 
Q 5475 4350 5175 4350 
L 3475 4350 
L 3475 3825 
L 5300 3825 
Q 5275 3400 5275 2675 
Q 5275 1975 5300 1550 
L 3400 1550 
Q 3325 1025 3050 575 
Q 3425 350 4137 175 
Q 4850 0 5237 -25 
Q 5625 -50 6000 -50 
Q 5850 -175 5750 -575 
Q 5075 -525 4250 -337 
Q 3425 -150 2775 200 
Q 2525 -25 2037 -262 
Q 1550 -500 600 -650 
Q 500 -375 350 -175 
Q 1075 -150 1612 37 
Q 2150 225 2400 450 
Q 1925 775 1400 1275 
Q 1550 1375 1700 1550 
L 1100 1550 
Q 1125 2025 1125 2725 
Q 1125 3450 1100 3825 
L 3000 3825 
L 3000 4350 
L 1450 4350 
Q 1050 4350 600 4325 
L 600 4775 
Q 1050 4750 1425 4750 
L 5175 4750 
z
M 2975 1975 
Q 3000 2250 3000 2525 
L 1625 2525 
L 1625 1975 
L 2975 1975 
z
M 3000 2925 
L 3000 3450 
L 1625 3450 
L 1625 2925 
L 3000 2925 
z
M 4775 1975 
L 4775 2525 
L 3475 2525 
Q 3475 2350 3450 1975 
L 4775 1975 
z
M 4775 2925 
L 4775 3450 
L 3475 3450 
L 3475 2925 
L 4775 2925 
z
M 1775 1550 
Q 2225 1075 2675 800 
Q 2875 1175 2925 1550 
L 1775 1550 
z
" id="SimHei-66f4" transform="scale(0.015625)"/>
       <path d="M 6125 4650 
Q 5750 4650 4275 4500 
L 4275 3225 
L 5575 3225 
Q 5850 3225 6150 3250 
L 6150 2775 
Q 5800 2800 5550 2800 
L 5550 225 
Q 5550 -200 5575 -675 
L 5050 -675 
Q 5075 -200 5075 200 
L 5075 2800 
L 4275 2800 
Q 4275 2175 4225 1600 
Q 4175 1025 4012 462 
Q 3850 -100 3525 -700 
Q 3275 -550 3025 -450 
Q 3425 125 3587 762 
Q 3750 1400 3775 1875 
Q 3800 2350 3800 3300 
Q 3800 4275 3775 4850 
Q 4900 4900 5800 5200 
Q 6000 4800 6125 4650 
z
M 2975 3825 
Q 2800 3725 2575 3050 
Q 3000 3050 3450 3075 
L 3450 2575 
Q 3025 2600 2175 2600 
L 2175 1975 
Q 2950 1975 3400 2000 
L 3400 1500 
Q 2950 1525 2175 1525 
L 2175 0 
Q 2175 -375 1937 -500 
Q 1700 -625 1325 -625 
Q 1225 -325 1075 -75 
Q 1425 -100 1562 -75 
Q 1700 -50 1700 150 
L 1700 1525 
Q 900 1525 450 1500 
L 450 2000 
Q 925 1975 1700 1975 
L 1700 2600 
Q 775 2600 325 2575 
L 325 3075 
Q 775 3050 1175 3050 
L 2125 3050 
Q 2325 3650 2425 3975 
Q 2625 3925 2975 3825 
z
M 2125 5275 
Q 2250 4750 2275 4550 
Q 2850 4550 3350 4575 
L 3350 4075 
Q 2825 4100 2500 4100 
L 1300 4100 
Q 875 4100 475 4075 
L 475 4575 
Q 900 4550 1300 4550 
L 1750 4550 
Q 1700 4825 1600 5125 
Q 1850 5200 2125 5275 
z
M 1525 1050 
Q 1375 875 1175 612 
Q 975 350 600 -125 
Q 425 50 225 175 
Q 750 750 1050 1375 
Q 1300 1175 1525 1050 
z
M 2725 1300 
Q 3025 900 3275 475 
Q 3025 350 2875 150 
Q 2675 600 2350 1025 
Q 2525 1175 2725 1300 
z
M 1275 3950 
Q 1450 3600 1575 3250 
Q 1350 3200 1150 3100 
Q 1025 3475 875 3775 
Q 1050 3875 1275 3950 
z
" id="SimHei-65b0" transform="scale(0.015625)"/>
      </defs>
      <use xlink:href="#SimHei-7b2c"/>
      <use x="100" xlink:href="#SimHei-6e"/>
      <use x="150" xlink:href="#SimHei-6b21"/>
      <use x="250" xlink:href="#SimHei-66f4"/>
      <use x="350" xlink:href="#SimHei-65b0"/>
     </g>
    </g>
   </g>
   <g id="matplotlib.axis_2">
    <g id="ytick_1">
     <g id="line2d_10">
      <defs>
       <path d="M 0 0 
L -3.5 0 
" id="mf834bc57df" style="stroke:#000000;stroke-width:0.8;"/>
      </defs>
      <g>
       <use style="stroke:#000000;stroke-width:0.8;" x="57.6" xlink:href="#mf834bc57df" y="300.906002"/>
      </g>
     </g>
     <g id="text_11">
      <!-- 0 -->
      <g transform="translate(45.6 304.343502)scale(0.1 -0.1)">
       <use xlink:href="#SimHei-30"/>
      </g>
     </g>
    </g>
    <g id="ytick_2">
     <g id="line2d_11">
      <g>
       <use style="stroke:#000000;stroke-width:0.8;" x="57.6" xlink:href="#mf834bc57df" y="243.389374"/>
      </g>
     </g>
     <g id="text_12">
      <!-- 10 -->
      <g transform="translate(40.6 246.826874)scale(0.1 -0.1)">
       <use xlink:href="#SimHei-31"/>
       <use x="50" xlink:href="#SimHei-30"/>
      </g>
     </g>
    </g>
    <g id="ytick_3">
     <g id="line2d_12">
      <g>
       <use style="stroke:#000000;stroke-width:0.8;" x="57.6" xlink:href="#mf834bc57df" y="185.872745"/>
      </g>
     </g>
     <g id="text_13">
      <!-- 20 -->
      <g transform="translate(40.6 189.310245)scale(0.1 -0.1)">
       <use xlink:href="#SimHei-32"/>
       <use x="50" xlink:href="#SimHei-30"/>
      </g>
     </g>
    </g>
    <g id="ytick_4">
     <g id="line2d_13">
      <g>
       <use style="stroke:#000000;stroke-width:0.8;" x="57.6" xlink:href="#mf834bc57df" y="128.356117"/>
      </g>
     </g>
     <g id="text_14">
      <!-- 30 -->
      <g transform="translate(40.6 131.793617)scale(0.1 -0.1)">
       <use xlink:href="#SimHei-33"/>
       <use x="50" xlink:href="#SimHei-30"/>
      </g>
     </g>
    </g>
    <g id="ytick_5">
     <g id="line2d_14">
      <g>
       <use style="stroke:#000000;stroke-width:0.8;" x="57.6" xlink:href="#mf834bc57df" y="70.839488"/>
      </g>
     </g>
     <g id="text_15">
      <!-- 40 -->
      <g transform="translate(40.6 74.276988)scale(0.1 -0.1)">
       <use xlink:href="#SimHei-34"/>
       <use x="50" xlink:href="#SimHei-30"/>
      </g>
     </g>
    </g>
    <g id="text_16">
     <!-- G值大小 -->
     <g transform="translate(35.35 192.028)rotate(-90)scale(0.1 -0.1)">
      <defs>
       <path d="M 2850 75 
L 2425 75 
L 2350 425 
Q 2250 275 2037 175 
Q 1825 75 1575 75 
Q 1050 75 637 562 
Q 225 1050 225 2125 
Q 225 3300 600 3875 
Q 975 4450 1625 4450 
Q 2200 4450 2525 4025 
Q 2850 3600 2850 2925 
L 2300 2925 
Q 2300 3450 2125 3712 
Q 1950 3975 1625 3975 
Q 1225 3975 1025 3562 
Q 825 3150 825 2175 
Q 825 1250 1075 900 
Q 1325 550 1650 550 
Q 1975 550 2162 787 
Q 2350 1025 2350 1525 
L 2350 1800 
L 1575 1800 
L 1575 2275 
L 2850 2275 
L 2850 75 
z
" id="SimHei-47" transform="scale(0.015625)"/>
       <path d="M 3675 4450 
L 3675 5100 
Q 3975 5075 4350 5050 
Q 4225 4875 4200 4450 
L 5125 4450 
Q 5550 4450 5875 4475 
L 5875 4025 
Q 5525 4050 5125 4050 
L 4175 4050 
L 4125 3500 
L 5400 3500 
Q 5375 3200 5375 2700 
L 5375 150 
Q 5875 150 6100 175 
L 6100 -275 
Q 5775 -250 5200 -250 
L 2850 -250 
Q 2275 -250 1900 -275 
L 1900 175 
Q 2125 150 2600 150 
L 2600 2700 
Q 2600 3175 2575 3500 
L 3600 3500 
L 3650 4050 
L 3200 4050 
Q 2575 4050 2225 4025 
L 2225 4475 
Q 2550 4450 3200 4450 
L 3675 4450 
z
M 2225 4900 
Q 2025 4675 1650 3750 
L 1650 450 
Q 1650 -75 1675 -550 
L 1150 -550 
Q 1175 -125 1175 375 
L 1175 2950 
Q 875 2450 625 2150 
Q 425 2425 250 2575 
Q 500 2825 937 3537 
Q 1375 4250 1625 5150 
Q 1975 4975 2225 4900 
z
M 4925 2650 
L 4925 3150 
L 3075 3150 
L 3075 2650 
L 4925 2650 
z
M 4925 150 
L 4925 625 
L 3075 625 
L 3075 150 
L 4925 150 
z
M 4925 1000 
L 4925 1450 
L 3075 1450 
L 3075 1000 
L 4925 1000 
z
M 4925 1825 
L 4925 2275 
L 3075 2275 
L 3075 1825 
L 4925 1825 
z
" id="SimHei-503c" transform="scale(0.015625)"/>
       <path d="M 2900 3400 
Q 2925 4275 2912 4575 
Q 2900 4875 2875 5150 
Q 3175 5100 3550 5075 
Q 3475 4825 3437 4350 
Q 3400 3875 3400 3400 
L 4675 3400 
Q 5350 3400 5925 3450 
L 5925 2900 
Q 5425 2925 4900 2925 
L 3425 2925 
Q 3525 2500 3775 2062 
Q 4025 1625 4287 1287 
Q 4550 950 5012 575 
Q 5475 200 6025 -50 
Q 5825 -200 5625 -550 
Q 5175 -300 4737 75 
Q 4300 450 3862 1062 
Q 3425 1675 3200 2200 
Q 3000 1650 2775 1287 
Q 2550 925 2287 625 
Q 2025 325 1612 25 
Q 1200 -275 675 -575 
Q 475 -275 225 -50 
Q 750 125 1262 450 
Q 1775 775 2100 1187 
Q 2425 1600 2625 2050 
Q 2825 2500 2875 2925 
L 1500 2925 
Q 900 2925 550 2900 
L 550 3450 
Q 900 3425 1500 3400 
L 2900 3400 
z
" id="SimHei-5927" transform="scale(0.015625)"/>
       <path d="M 3500 5150 
Q 3475 4800 3475 4200 
L 3475 175 
Q 3475 -300 3225 -425 
Q 2975 -550 2375 -600 
Q 2325 -300 2150 -25 
Q 2700 -25 2837 0 
Q 2975 25 2975 300 
L 2975 4200 
Q 2975 4650 2950 5150 
L 3500 5150 
z
M 2075 3400 
Q 1850 2775 1550 1962 
Q 1250 1150 1025 750 
Q 775 950 500 1000 
Q 925 1750 1175 2487 
Q 1425 3225 1500 3575 
Q 1800 3425 2075 3400 
z
M 4675 3600 
Q 5675 1800 5875 1150 
Q 5625 1100 5375 925 
Q 5000 2000 4225 3325 
Q 4425 3425 4675 3600 
z
" id="SimHei-5c0f" transform="scale(0.015625)"/>
      </defs>
      <use xlink:href="#SimHei-47"/>
      <use x="50" xlink:href="#SimHei-503c"/>
      <use x="150" xlink:href="#SimHei-5927"/>
      <use x="250" xlink:href="#SimHei-5c0f"/>
     </g>
    </g>
   </g>
   <g id="patch_3">
    <path d="M 57.6 307.584 
L 57.6 41.472 
" style="fill:none;stroke:#000000;stroke-linecap:square;stroke-linejoin:miter;stroke-width:0.8;"/>
   </g>
   <g id="patch_4">
    <path d="M 414.72 307.584 
L 414.72 41.472 
" style="fill:none;stroke:#000000;stroke-linecap:square;stroke-linejoin:miter;stroke-width:0.8;"/>
   </g>
   <g id="patch_5">
    <path d="M 57.6 307.584 
L 414.72 307.584 
" style="fill:none;stroke:#000000;stroke-linecap:square;stroke-linejoin:miter;stroke-width:0.8;"/>
   </g>
   <g id="patch_6">
    <path d="M 57.6 41.472 
L 414.72 41.472 
" style="fill:none;stroke:#000000;stroke-linecap:square;stroke-linejoin:miter;stroke-width:0.8;"/>
   </g>
   <g id="text_17">
    <!-- 遍历过程中G值变化表 -->
    <g transform="translate(179.16 35.472)scale(0.12 -0.12)">
     <defs>
      <path d="M 3675 4600 
Q 3625 4875 3500 5200 
Q 3800 5250 4050 5300 
Q 4150 4925 4200 4600 
L 5650 4600 
Q 5625 4300 5625 3925 
Q 5625 3550 5650 3200 
L 2725 3200 
Q 2700 2925 2675 2700 
L 5875 2700 
Q 5850 2500 5825 1950 
L 5825 875 
Q 5825 525 5625 425 
Q 5425 325 5175 275 
Q 5100 525 5000 750 
Q 5275 750 5350 800 
Q 5425 850 5425 1100 
L 5425 1325 
L 4875 1325 
L 4875 475 
L 4450 475 
L 4450 1325 
L 3975 1325 
L 3975 400 
L 3575 400 
L 3575 1325 
L 3075 1325 
L 3075 350 
L 2625 350 
Q 2650 900 2650 1475 
L 2650 2550 
Q 2550 2150 2400 1725 
Q 2250 1300 1925 900 
Q 1725 1075 1475 1250 
L 1475 725 
Q 2100 -25 3775 -12 
Q 5450 0 6200 150 
Q 6050 -100 6000 -525 
L 3950 -525 
Q 3000 -525 2475 -387 
Q 1950 -250 1325 325 
Q 975 -75 775 -525 
Q 600 -300 325 -150 
Q 600 125 1025 575 
L 1025 2625 
Q 800 2625 350 2600 
L 350 3050 
Q 725 3025 1525 3025 
Q 1475 2550 1475 2150 
L 1475 1375 
Q 1925 1675 2075 2187 
Q 2225 2700 2275 3300 
Q 2325 3900 2300 4600 
L 3675 4600 
z
M 5175 3575 
L 5175 4200 
L 2750 4200 
L 2750 3575 
L 5175 3575 
z
M 1100 5050 
Q 1625 4400 1825 4125 
Q 1625 3975 1400 3775 
Q 1125 4200 700 4700 
Q 875 4850 1100 5050 
z
M 5425 1725 
L 5425 2325 
L 4875 2325 
L 4875 1725 
L 5425 1725 
z
M 3575 1725 
L 3575 2325 
L 3075 2325 
L 3075 1725 
L 3575 1725 
z
M 4450 1725 
L 4450 2325 
L 3975 2325 
L 3975 1725 
L 4450 1725 
z
" id="SimHei-904d" transform="scale(0.015625)"/>
      <path d="M 3725 2500 
Q 3625 1775 3487 1337 
Q 3350 900 3150 562 
Q 2950 225 2687 -62 
Q 2425 -350 2075 -625 
Q 1825 -350 1500 -225 
Q 2075 75 2387 412 
Q 2700 750 2875 1125 
Q 3050 1500 3112 1787 
Q 3175 2075 3225 2500 
L 2725 2500 
Q 2125 2500 1900 2475 
L 1900 2950 
Q 2375 2925 2675 2925 
L 3250 2925 
Q 3275 3250 3275 3550 
L 3275 4275 
Q 3625 4175 3900 4150 
Q 3825 3775 3800 3512 
Q 3775 3250 3750 2925 
L 5650 2925 
Q 5600 2550 5550 1850 
Q 5500 1150 5475 687 
Q 5450 225 5375 -50 
Q 5300 -325 4987 -412 
Q 4675 -500 4300 -550 
Q 4225 -250 4050 100 
Q 4575 75 4725 125 
Q 4875 175 4912 562 
Q 4950 950 5000 1475 
Q 5050 2000 5075 2500 
L 3725 2500 
z
M 800 -675 
Q 550 -500 225 -400 
Q 525 0 662 412 
Q 800 825 900 1412 
Q 1000 2000 1000 2725 
L 1000 3950 
Q 1000 4450 950 4825 
L 4825 4825 
Q 5375 4825 5675 4850 
L 5675 4375 
Q 5425 4400 5000 4400 
L 1500 4400 
Q 1500 2800 1487 2287 
Q 1475 1775 1412 1275 
Q 1350 775 1262 450 
Q 1175 125 1062 -162 
Q 950 -450 800 -675 
z
" id="SimHei-5386" transform="scale(0.015625)"/>
      <path d="M 250 -200 
Q 1025 475 1275 650 
L 1275 2475 
Q 675 2475 400 2450 
L 400 2950 
Q 625 2900 1325 2900 
L 1800 2900 
Q 1775 2525 1775 2150 
L 1775 600 
Q 2500 -25 3912 -37 
Q 5325 -50 6150 75 
Q 6000 -175 5925 -550 
L 4425 -550 
Q 3800 -550 3275 -512 
Q 2750 -475 2387 -300 
Q 2025 -125 1750 75 
Q 1475 275 1237 37 
Q 1000 -200 700 -625 
Q 550 -375 250 -200 
z
M 3625 850 
Q 4200 825 4350 875 
Q 4500 925 4500 1300 
L 4500 3575 
L 2875 3575 
Q 2600 3575 2275 3550 
L 2275 4025 
Q 2600 4000 3075 4000 
L 4500 4000 
Q 4500 4650 4450 5125 
L 5025 5125 
Q 5000 4800 5000 4000 
Q 5525 4000 5950 4025 
L 5950 3550 
Q 5550 3575 5000 3575 
L 5000 1100 
Q 5000 525 4662 412 
Q 4325 300 3825 275 
Q 3775 550 3625 850 
z
M 3125 1600 
Q 2900 2275 2575 2850 
Q 2800 2950 3050 3125 
Q 3500 2225 3625 1875 
Q 3450 1775 3125 1600 
z
M 1150 4975 
Q 1400 4675 1925 3875 
Q 1675 3725 1450 3550 
Q 950 4400 700 4625 
Q 925 4750 1150 4975 
z
" id="SimHei-8fc7" transform="scale(0.015625)"/>
      <path d="M 5825 4975 
Q 5800 4425 5800 3975 
Q 5800 3550 5825 3125 
L 3025 3125 
Q 3050 3600 3050 4025 
Q 3050 4450 3025 4975 
L 5825 4975 
z
M 400 4825 
Q 825 4875 1362 4987 
Q 1900 5100 2275 5275 
Q 2450 4950 2625 4725 
Q 2450 4750 2262 4712 
Q 2075 4675 1850 4650 
L 1850 3425 
Q 2200 3425 2600 3450 
L 2600 2975 
Q 2200 3000 1850 3000 
L 1850 800 
Q 1850 250 1875 -675 
L 1375 -675 
Q 1400 250 1400 775 
L 1400 1925 
Q 1050 1225 625 600 
Q 450 850 225 1050 
Q 575 1400 850 1850 
Q 1125 2300 1350 3000 
Q 725 3000 425 2975 
L 425 3450 
Q 850 3425 1050 3425 
L 1400 3425 
L 1400 4550 
Q 1075 4475 575 4400 
Q 500 4625 400 4825 
z
M 5100 2500 
Q 5500 2500 5950 2525 
L 5950 2075 
Q 5500 2100 5100 2100 
L 4625 2100 
L 4625 1300 
L 4900 1300 
Q 5275 1300 5775 1325 
L 5775 850 
Q 5275 875 4975 875 
L 4625 875 
L 4625 0 
L 5225 0 
Q 5675 0 6175 25 
L 6175 -450 
Q 5775 -425 5225 -425 
L 3550 -425 
Q 3000 -425 2600 -475 
L 2600 25 
Q 3000 0 3550 0 
L 4150 0 
L 4150 875 
L 3800 875 
Q 3400 875 3050 825 
L 3050 1325 
Q 3400 1300 3800 1300 
L 4150 1300 
L 4150 2100 
L 3750 2100 
Q 3300 2100 2900 2075 
L 2900 2525 
Q 3300 2500 3750 2500 
L 5100 2500 
z
M 5275 3575 
L 5275 4550 
L 3500 4550 
L 3500 3575 
L 5275 3575 
z
M 2300 2400 
Q 2550 2025 2825 1525 
Q 2675 1425 2425 1225 
Q 2175 1775 1925 2125 
Q 2075 2250 2300 2400 
z
" id="SimHei-7a0b" transform="scale(0.015625)"/>
      <path d="M 3475 5200 
Q 3450 4500 3450 3875 
L 5625 3875 
Q 5600 3375 5600 2500 
Q 5600 1650 5625 1225 
L 5075 1225 
L 5075 1600 
L 3450 1600 
L 3450 525 
Q 3450 225 3475 -600 
L 2875 -600 
Q 2925 -150 2925 450 
L 2925 1600 
L 1300 1600 
L 1300 1225 
L 750 1225 
Q 775 1600 775 2500 
Q 775 3425 750 3875 
L 2925 3875 
Q 2925 4550 2900 5200 
L 3475 5200 
z
M 5075 2000 
L 5075 3475 
L 3450 3475 
L 3450 2000 
L 5075 2000 
z
M 2925 2000 
L 2925 3475 
L 1300 3475 
L 1300 2000 
L 2925 2000 
z
" id="SimHei-4e2d" transform="scale(0.015625)"/>
      <path d="M 5200 1975 
Q 4950 1600 4537 1137 
Q 4125 675 3675 375 
Q 3925 225 4600 87 
Q 5275 -50 6000 -75 
Q 5700 -400 5650 -625 
Q 4850 -525 4212 -312 
Q 3575 -100 3225 125 
Q 2800 -125 2150 -325 
Q 1500 -525 700 -675 
Q 600 -425 400 -175 
Q 950 -150 1687 12 
Q 2425 175 2825 375 
Q 2275 775 1675 1575 
Q 1350 1575 1000 1550 
L 1000 2000 
Q 1450 1975 2075 1975 
L 5200 1975 
z
M 3225 5275 
Q 3400 4900 3550 4475 
L 4675 4475 
Q 5400 4475 5975 4500 
L 5975 4025 
Q 5375 4050 4725 4050 
L 4125 4050 
L 4125 2950 
Q 4125 2550 4150 2150 
L 3600 2150 
Q 3625 2550 3625 2950 
L 3625 4050 
L 2750 4050 
L 2750 2950 
Q 2750 2675 2775 2150 
L 2225 2150 
Q 2250 2675 2250 2950 
L 2250 4050 
L 1700 4050 
Q 975 4050 425 4025 
L 425 4500 
Q 950 4475 1700 4475 
L 2975 4475 
Q 2925 4675 2700 5125 
Q 2950 5150 3225 5275 
z
M 2200 1575 
Q 2650 975 3250 600 
Q 3850 1000 4275 1575 
L 2200 1575 
z
M 4850 3750 
Q 5375 3275 5950 2675 
Q 5750 2525 5500 2300 
Q 5075 2800 4450 3400 
Q 4675 3575 4850 3750 
z
M 1825 3500 
Q 1700 3375 1425 3025 
Q 1150 2675 825 2300 
Q 575 2475 375 2600 
Q 975 3150 1300 3825 
Q 1525 3650 1825 3500 
z
" id="SimHei-53d8" transform="scale(0.015625)"/>
      <path d="M 3925 5025 
Q 3900 4900 3900 4400 
L 3900 2625 
Q 4375 3025 4775 3450 
Q 5175 3875 5400 4300 
Q 5600 4100 5900 3925 
Q 5700 3700 5225 3212 
Q 4750 2725 4487 2512 
Q 4225 2300 3900 2025 
L 3900 450 
Q 3900 50 4225 50 
L 5200 50 
Q 5400 75 5462 262 
Q 5525 450 5575 850 
Q 5800 650 6150 600 
Q 6000 -100 5825 -250 
Q 5650 -400 5350 -400 
L 3950 -400 
Q 3425 -400 3400 200 
L 3400 1675 
Q 3225 1525 2962 1350 
Q 2700 1175 2375 975 
Q 2225 1225 2025 1400 
Q 2350 1550 2737 1787 
Q 3125 2025 3400 2250 
L 3400 4500 
Q 3400 4800 3375 5025 
L 3925 5025 
z
M 2400 4850 
Q 2175 4550 2075 4337 
Q 1975 4125 1825 3775 
L 1825 675 
Q 1825 -75 1850 -550 
L 1325 -550 
Q 1350 -125 1350 650 
L 1350 3050 
Q 1125 2725 962 2525 
Q 800 2325 675 2175 
Q 500 2375 275 2525 
Q 625 2850 875 3212 
Q 1125 3575 1312 3912 
Q 1500 4250 1625 4575 
Q 1750 4900 1825 5100 
Q 1975 4975 2400 4850 
z
" id="SimHei-5316" transform="scale(0.015625)"/>
      <path d="M 2950 4475 
Q 2950 4800 2925 5200 
L 3500 5200 
Q 3450 4900 3450 4475 
L 4975 4475 
Q 5325 4475 5725 4500 
L 5725 4025 
Q 5325 4075 5000 4075 
L 3450 4075 
L 3450 3600 
L 4675 3600 
Q 5075 3600 5450 3625 
L 5450 3175 
Q 5100 3200 4675 3200 
L 3450 3200 
L 3450 2650 
L 5225 2650 
Q 5675 2650 6075 2675 
L 6075 2200 
Q 5700 2250 5250 2250 
L 3075 2250 
Q 2900 2025 2525 1625 
L 2525 175 
Q 2975 425 3525 800 
Q 3575 500 3700 275 
Q 3225 50 2837 -200 
Q 2450 -450 2250 -625 
Q 2050 -375 1900 -175 
Q 2075 -50 2050 400 
L 2050 1200 
Q 1750 950 1425 737 
Q 1100 525 750 325 
Q 600 550 375 750 
Q 975 1000 1562 1425 
Q 2150 1850 2450 2250 
L 1275 2250 
Q 800 2250 350 2200 
L 350 2675 
Q 650 2650 1350 2650 
L 2950 2650 
L 2950 3200 
L 1825 3200 
Q 1400 3200 1125 3175 
L 1125 3625 
Q 1525 3600 1825 3600 
L 2950 3600 
L 2950 4075 
L 1700 4075 
Q 1225 4075 825 4025 
L 825 4525 
Q 1200 4475 1825 4475 
L 2950 4475 
z
M 3550 2125 
Q 3725 1600 4150 1050 
Q 4650 1450 5050 2000 
Q 5275 1775 5575 1575 
Q 5350 1500 5075 1262 
Q 4800 1025 4475 725 
Q 4725 475 5225 337 
Q 5725 200 6150 175 
Q 5925 -100 5875 -425 
Q 4600 -125 4012 500 
Q 3425 1125 3150 1950 
L 3550 2125 
z
" id="SimHei-8868" transform="scale(0.015625)"/>
     </defs>
     <use xlink:href="#SimHei-904d"/>
     <use x="100" xlink:href="#SimHei-5386"/>
     <use x="200" xlink:href="#SimHei-8fc7"/>
     <use x="300" xlink:href="#SimHei-7a0b"/>
     <use x="400" xlink:href="#SimHei-4e2d"/>
     <use x="500" xlink:href="#SimHei-47"/>
     <use x="550" xlink:href="#SimHei-503c"/>
     <use x="650" xlink:href="#SimHei-53d8"/>
     <use x="750" xlink:href="#SimHei-5316"/>
     <use x="850" xlink:href="#SimHei-8868"/>
    </g>
   </g>
  </g>
 </g>
 <defs>
  <clipPath id="p30fe231d5c">
   <rect height="266.112" width="357.12" x="57.6" y="41.472"/>
  </clipPath>
 </defs>
</svg>
